<svg id="svg" xmlns="http://www.w3.org/2000/svg" xmlns:xlink="http://www.w3.org/1999/xlink" width="100%" height="100%" viewBox="0, 0, 400,133.33333333333334">
  <defs>
      <linearGradient id="svg-gradient" x1="0" x2="0" y1="0" y2="1">
        <stop offset="11%" stop-color="#dd6078"/>
        <stop offset="100%" stop-color="#3f1e2e"/>
      </linearGradient>
  </defs>
  <g id="svgg"><path id="path0" d="M47.833 20.194 C 47.348 20.337,46.667 20.659,46.667 20.745 C 46.667 20.780,46.641 20.792,46.610 20.773 C 46.532 20.725,45.458 21.594,44.976 22.094 C 43.944 23.166,43.037 24.415,41.496 26.888 C 40.898 27.848,40.154 29.023,39.843 29.500 C 36.601 34.470,34.993 37.187,33.314 40.533 C 32.084 42.983,31.876 43.483,31.238 45.500 C 30.043 49.281,29.530 50.443,28.599 51.483 C 28.218 51.909,28.164 51.934,28.095 51.717 C 28.069 51.634,27.972 51.447,27.879 51.301 C 27.787 51.154,27.600 50.830,27.464 50.579 L 27.217 50.124 26.925 50.592 C 26.765 50.850,26.600 51.062,26.560 51.064 C 26.489 51.067,26.284 50.360,26.135 49.600 C 25.828 48.035,25.169 47.786,23.952 48.776 L 23.671 49.005 23.512 48.752 C 23.234 48.312,23.089 47.982,22.931 47.433 C 22.721 46.705,22.528 46.337,22.196 46.037 L 21.914 45.783 21.507 45.838 C 20.173 46.017,19.530 45.863,19.062 45.251 C 18.726 44.813,18.319 44.399,18.120 44.295 C 17.911 44.185,17.533 44.168,17.533 44.268 C 17.533 44.492,16.927 44.931,16.389 45.096 C 15.992 45.218,15.710 45.359,15.400 45.592 C 14.975 45.911,14.831 45.969,14.305 46.036 C 13.067 46.193,12.783 46.418,12.375 47.567 C 11.730 49.382,11.124 50.187,9.967 50.765 C 9.272 51.112,9.134 51.245,8.724 51.955 C 8.376 52.561,8.141 52.813,7.600 53.164 C 7.054 53.518,7.103 53.453,6.442 54.700 C 5.856 55.808,5.241 56.342,3.300 57.435 C 2.161 58.077,1.671 58.413,1.108 58.939 C 0.645 59.371,0.595 59.400,0.307 59.400 L 0.000 59.400 0.000 96.367 L 0.000 133.333 200.000 133.333 L 400.000 133.333 400.000 96.367 L 400.000 59.400 397.146 59.400 L 394.292 59.400 393.230 59.795 L 392.167 60.190 391.907 60.045 C 391.179 59.639,390.122 58.363,389.525 57.168 C 389.036 56.191,388.940 56.088,388.368 55.929 C 387.767 55.762,387.477 55.580,386.767 54.921 C 385.793 54.018,384.768 53.415,383.747 53.144 C 383.176 52.993,383.066 52.907,382.843 52.435 C 382.526 51.767,382.149 51.454,381.433 51.267 C 381.040 51.165,380.839 50.996,380.362 50.367 C 380.167 50.110,379.838 49.692,379.631 49.437 C 379.423 49.183,379.151 48.756,379.026 48.489 C 378.763 47.927,378.440 47.574,378.026 47.397 C 377.865 47.328,377.534 47.121,377.290 46.936 C 376.662 46.460,376.462 46.471,375.769 47.018 C 375.139 47.516,375.025 47.495,374.431 46.767 C 372.674 44.613,371.659 44.283,370.613 45.525 C 370.293 45.905,370.199 45.929,369.783 45.735 C 368.987 45.365,368.509 45.321,367.319 45.508 C 366.032 45.711,365.833 45.898,365.473 47.242 C 365.216 48.203,363.359 47.115,361.791 45.084 C 361.353 44.517,360.915 44.116,360.837 44.212 C 360.827 44.224,360.741 44.391,360.646 44.583 C 360.551 44.775,360.272 45.240,360.026 45.616 C 359.780 45.992,359.526 46.450,359.461 46.633 C 359.307 47.073,359.206 47.077,358.763 46.658 C 358.375 46.290,358.382 46.291,358.197 46.613 C 358.096 46.790,357.884 47.770,357.798 48.460 C 357.652 49.626,357.479 50.012,356.323 51.751 C 355.686 52.710,355.667 52.763,355.667 53.566 C 355.667 55.256,355.002 55.345,354.215 53.760 C 353.853 53.033,353.863 53.038,353.582 53.446 C 353.115 54.122,352.991 54.139,352.147 53.637 C 351.320 53.144,351.054 53.259,349.990 54.567 C 349.352 55.352,349.061 55.495,347.700 55.695 C 347.145 55.776,347.067 55.807,347.067 55.941 C 347.067 56.164,346.879 56.533,346.592 56.877 C 346.270 57.261,346.140 57.581,346.136 58.000 C 346.134 58.203,346.057 58.457,345.900 58.781 C 345.713 59.167,345.667 59.342,345.667 59.660 C 345.667 60.184,345.597 60.347,345.178 60.800 C 344.963 61.031,344.771 61.323,344.684 61.550 C 344.239 62.714,343.839 62.880,342.973 62.260 C 342.249 61.741,342.103 61.706,341.263 61.840 C 340.403 61.977,340.298 61.946,340.077 61.493 C 339.882 61.090,339.663 61.008,339.340 61.217 C 338.494 61.762,337.784 61.950,337.421 61.725 C 337.194 61.585,337.103 61.570,336.567 61.590 C 336.036 61.609,335.898 61.588,335.373 61.406 C 334.397 61.068,334.287 61.090,333.606 61.774 C 332.522 62.860,331.914 62.946,330.736 62.180 C 329.794 61.567,329.289 61.762,327.733 63.335 C 326.425 64.658,325.646 65.093,325.088 64.813 C 324.403 64.469,323.508 64.406,322.819 64.652 C 322.306 64.834,322.295 64.835,321.888 64.733 C 321.309 64.587,320.944 64.631,320.858 64.855 C 320.742 65.161,320.700 65.180,320.252 65.125 C 320.022 65.097,319.353 65.069,318.767 65.063 C 316.940 65.043,316.562 64.963,315.300 64.327 C 314.167 63.757,313.731 63.748,313.457 64.288 C 313.379 64.441,313.126 64.838,312.895 65.170 C 312.664 65.502,312.416 65.922,312.343 66.103 C 311.898 67.214,311.577 67.447,310.947 67.117 L 310.661 66.967 310.534 67.133 C 310.235 67.525,309.909 68.216,309.706 68.886 C 309.471 69.662,309.419 69.750,309.186 69.765 C 309.084 69.772,308.961 69.883,308.813 70.101 C 308.600 70.415,308.582 70.426,308.302 70.408 C 307.965 70.388,307.668 70.520,307.509 70.762 C 307.281 71.111,307.035 71.169,306.515 70.999 C 305.880 70.790,305.724 70.865,305.383 71.546 C 305.097 72.118,304.930 72.240,304.460 72.219 C 303.979 72.199,303.080 72.004,302.663 71.830 C 302.459 71.745,302.084 71.659,301.829 71.638 C 301.065 71.576,300.852 71.527,300.433 71.313 C 300.055 71.120,299.989 71.109,299.233 71.105 C 298.114 71.098,297.780 70.884,297.249 69.833 C 296.928 69.196,296.626 69.074,295.902 69.290 L 295.444 69.426 295.120 69.245 C 294.855 69.098,294.770 69.078,294.658 69.138 C 294.543 69.199,294.490 69.184,294.343 69.046 C 294.246 68.955,293.823 68.620,293.403 68.303 L 292.640 67.725 292.323 68.079 C 292.149 68.274,292.004 68.456,292.003 68.483 C 291.997 68.579,291.845 68.532,291.633 68.371 C 290.725 67.678,290.496 67.656,290.046 68.217 C 289.675 68.678,289.323 68.541,289.095 67.848 C 288.912 67.293,288.856 67.239,287.564 66.378 C 287.269 66.182,286.909 65.876,286.764 65.699 C 285.626 64.311,285.205 64.165,284.364 64.864 C 283.533 65.553,282.917 65.651,282.044 65.231 C 281.128 64.790,280.607 64.837,280.472 65.372 C 280.353 65.846,280.246 66.012,279.717 66.545 C 279.402 66.862,279.143 67.203,278.978 67.518 C 278.689 68.071,278.047 68.649,277.929 68.462 C 277.880 68.385,277.840 68.401,277.711 68.549 C 277.549 68.735,277.467 68.730,277.467 68.533 C 277.467 68.472,277.424 68.422,277.373 68.422 C 277.301 68.422,277.293 68.460,277.338 68.578 C 277.370 68.663,277.379 68.733,277.357 68.733 C 277.335 68.733,277.348 68.771,277.386 68.817 C 277.466 68.913,277.245 69.236,277.143 69.172 C 277.109 69.152,277.085 69.172,277.089 69.217 C 277.122 69.579,276.912 70.064,276.721 70.069 C 276.660 70.070,276.668 70.097,276.746 70.156 C 276.942 70.305,276.989 70.950,276.795 70.830 C 276.692 70.767,276.726 70.978,276.833 71.067 C 276.943 71.158,276.969 71.333,276.873 71.333 C 276.840 71.333,276.829 71.398,276.850 71.478 C 276.879 71.588,276.864 71.613,276.788 71.584 C 276.572 71.501,276.509 71.646,276.691 71.805 C 276.882 71.971,276.951 72.466,276.783 72.468 C 276.575 72.470,276.511 72.579,276.624 72.741 C 276.770 72.949,276.762 73.067,276.600 73.067 C 276.438 73.067,276.432 73.118,276.576 73.277 C 276.699 73.413,276.439 73.587,276.303 73.460 C 276.269 73.427,276.178 73.400,276.102 73.400 C 275.935 73.400,275.651 73.213,275.699 73.136 C 275.717 73.105,275.838 73.104,275.966 73.133 C 276.095 73.162,276.200 73.162,276.200 73.133 C 276.200 73.104,276.273 73.011,276.361 72.925 C 276.564 72.730,276.533 72.678,276.234 72.711 C 275.963 72.741,275.733 72.642,275.733 72.495 C 275.733 72.416,275.761 72.410,275.867 72.467 C 275.964 72.519,276.000 72.517,276.000 72.462 C 276.000 72.420,276.045 72.403,276.100 72.424 C 276.228 72.473,276.500 72.195,276.389 72.127 C 276.347 72.101,276.275 72.093,276.229 72.111 C 276.184 72.128,276.127 72.110,276.103 72.071 C 276.078 72.032,275.985 72.018,275.894 72.041 C 275.772 72.071,275.695 72.043,275.598 71.931 C 275.431 71.738,275.430 71.741,275.667 71.748 C 275.777 71.751,275.867 71.776,275.867 71.804 C 275.867 71.867,276.123 71.804,276.169 71.730 C 276.187 71.700,276.116 71.624,276.009 71.562 C 275.849 71.467,275.734 71.033,275.869 71.033 C 275.878 71.033,275.892 70.909,275.900 70.756 C 275.915 70.437,275.827 70.429,275.653 70.734 C 275.495 71.011,275.387 70.988,275.413 70.683 C 275.430 70.478,275.456 70.437,275.563 70.456 C 275.677 70.476,275.682 70.465,275.601 70.368 C 275.522 70.273,275.522 70.248,275.602 70.199 C 275.654 70.167,275.674 70.119,275.647 70.092 C 275.621 70.065,275.555 70.101,275.501 70.172 C 275.376 70.337,275.355 70.142,275.474 69.919 C 275.538 69.800,275.533 69.786,275.436 69.823 C 275.373 69.847,275.312 69.867,275.299 69.867 C 275.286 69.867,275.289 69.979,275.306 70.117 C 275.333 70.341,275.328 70.351,275.258 70.217 C 275.215 70.134,275.152 70.067,275.119 70.067 C 275.032 70.067,275.133 70.356,275.242 70.420 C 275.292 70.449,275.333 70.524,275.332 70.587 C 275.331 70.682,275.322 70.685,275.269 70.602 C 275.217 70.519,275.200 70.523,275.160 70.627 C 275.129 70.709,275.150 70.771,275.223 70.812 C 275.284 70.846,275.333 70.903,275.333 70.940 C 275.333 70.977,275.229 70.927,275.101 70.830 L 274.869 70.652 274.884 70.926 C 274.896 71.129,274.928 71.199,275.010 71.200 C 275.070 71.200,275.136 71.245,275.158 71.301 C 275.179 71.356,275.220 71.393,275.248 71.384 C 275.277 71.374,275.307 71.397,275.316 71.433 C 275.339 71.530,274.805 71.520,274.724 71.422 C 274.673 71.360,274.634 71.358,274.575 71.414 C 274.485 71.498,274.760 71.833,274.865 71.768 C 274.896 71.748,274.933 71.767,274.947 71.808 C 274.965 71.861,275.040 71.849,275.191 71.771 C 275.402 71.662,275.407 71.663,275.341 71.785 C 275.234 71.986,275.120 72.043,274.809 72.052 C 274.649 72.057,274.499 72.079,274.475 72.103 C 274.406 72.173,274.821 72.466,274.989 72.466 C 275.083 72.467,275.134 72.499,275.117 72.550 C 275.083 72.654,274.800 72.702,274.800 72.605 C 274.800 72.565,274.755 72.533,274.700 72.533 C 274.645 72.533,274.600 72.582,274.600 72.640 C 274.600 72.707,274.563 72.733,274.502 72.710 C 274.403 72.672,274.238 72.794,274.181 72.949 C 274.158 73.011,274.116 73.002,274.025 72.913 C 273.913 72.804,273.911 72.784,274.004 72.713 C 274.164 72.591,274.216 72.400,274.091 72.400 C 274.013 72.400,273.996 72.358,274.026 72.239 C 274.101 71.941,273.874 71.982,273.695 72.299 C 273.576 72.509,273.467 72.498,273.467 72.274 C 273.467 72.129,273.493 72.081,273.558 72.106 C 273.617 72.129,273.666 72.077,273.695 71.963 C 273.753 71.733,273.683 71.664,273.561 71.830 C 273.469 71.956,273.467 71.956,273.467 71.817 C 273.467 71.738,273.497 71.656,273.533 71.633 C 273.570 71.611,273.600 71.562,273.600 71.525 C 273.600 71.489,273.572 71.476,273.538 71.497 C 273.504 71.518,273.463 71.482,273.446 71.417 C 273.423 71.328,273.414 71.336,273.408 71.450 C 273.403 71.532,273.364 71.600,273.320 71.600 C 273.258 71.600,273.258 71.618,273.320 71.680 C 273.417 71.777,273.425 71.933,273.333 71.933 C 273.297 71.933,273.267 71.893,273.267 71.844 C 273.267 71.796,273.227 71.756,273.178 71.756 C 273.111 71.756,273.096 71.840,273.121 72.094 C 273.151 72.405,273.144 72.425,273.042 72.340 C 272.896 72.219,272.857 72.267,272.905 72.509 C 272.932 72.642,273.008 72.734,273.139 72.792 C 273.246 72.839,273.333 72.905,273.333 72.939 C 273.333 73.022,273.085 73.017,273.033 72.932 C 273.010 72.895,272.962 72.883,272.926 72.905 C 272.890 72.927,272.825 72.915,272.780 72.878 C 272.725 72.832,272.663 72.838,272.585 72.895 C 272.421 73.015,272.906 73.290,273.180 73.231 L 273.367 73.191 273.206 73.331 C 273.105 73.420,273.022 73.449,272.982 73.409 C 272.911 73.337,272.533 73.444,272.533 73.535 C 272.533 73.566,272.593 73.610,272.667 73.633 C 272.822 73.683,272.846 73.800,272.700 73.800 C 272.645 73.800,272.600 73.830,272.600 73.867 C 272.600 73.903,272.540 73.933,272.467 73.933 C 272.273 73.933,272.303 74.042,272.525 74.140 C 272.862 74.290,272.970 74.660,272.653 74.577 C 272.480 74.532,272.333 74.591,272.333 74.706 C 272.333 74.764,272.271 74.793,272.167 74.785 C 271.972 74.769,271.973 74.770,272.091 74.652 C 272.316 74.427,272.289 74.276,272.020 74.254 C 271.850 74.240,271.761 74.198,271.747 74.123 C 271.733 74.052,271.768 74.017,271.846 74.023 C 271.935 74.031,271.962 73.992,271.949 73.876 C 271.937 73.760,271.958 73.729,272.033 73.757 C 272.092 73.780,272.133 73.759,272.133 73.706 C 272.133 73.657,272.179 73.579,272.234 73.533 C 272.348 73.438,272.256 73.267,272.092 73.267 C 272.041 73.267,272.000 73.237,272.000 73.202 C 272.000 73.166,271.917 73.153,271.815 73.174 C 271.645 73.208,271.319 72.992,271.407 72.904 C 271.435 72.877,271.743 72.817,271.917 72.805 C 271.962 72.802,272.000 72.747,272.000 72.682 C 272.000 72.616,272.046 72.498,272.102 72.418 C 272.217 72.253,272.046 72.094,271.838 72.174 C 271.770 72.200,271.733 72.177,271.733 72.109 C 271.733 72.046,271.696 72.019,271.639 72.041 C 271.511 72.089,271.287 71.963,271.194 71.789 C 271.121 71.653,271.130 71.649,271.385 71.683 C 271.623 71.715,271.662 71.700,271.743 71.543 C 271.793 71.446,271.871 71.327,271.917 71.278 C 272.012 71.178,271.962 71.041,271.855 71.107 C 271.816 71.131,271.759 71.109,271.727 71.059 C 271.685 70.992,271.668 70.990,271.668 71.050 C 271.666 71.175,271.436 71.150,271.310 71.011 C 271.150 70.835,271.164 70.709,271.333 70.800 C 271.440 70.857,271.467 70.851,271.467 70.769 C 271.467 70.674,271.535 70.641,271.700 70.657 C 271.823 70.670,271.939 70.331,271.826 70.288 C 271.772 70.267,271.709 70.268,271.687 70.291 C 271.665 70.313,271.609 70.280,271.564 70.218 C 271.495 70.124,271.464 70.120,271.377 70.192 C 271.259 70.289,271.133 70.240,271.133 70.096 C 271.133 70.043,271.103 70.000,271.067 70.000 C 271.030 70.000,271.000 69.952,271.000 69.893 C 271.000 69.827,271.037 69.800,271.096 69.822 C 271.148 69.843,271.205 69.823,271.221 69.780 C 271.241 69.727,271.267 69.737,271.296 69.809 C 271.333 69.898,271.370 69.904,271.503 69.842 C 271.698 69.752,271.706 69.702,271.544 69.587 C 271.476 69.539,271.407 69.458,271.391 69.408 C 271.366 69.332,271.342 69.334,271.255 69.421 C 271.160 69.516,271.137 69.516,271.025 69.425 C 270.905 69.328,270.907 69.325,271.054 69.356 C 271.253 69.399,271.389 69.112,271.240 68.964 C 271.160 68.884,271.135 68.884,271.065 68.969 C 271.020 69.023,270.953 69.067,270.915 69.067 C 270.877 69.067,270.901 69.006,270.968 68.932 C 271.035 68.857,271.122 68.808,271.162 68.823 C 271.305 68.875,271.482 68.732,271.399 68.632 C 271.356 68.581,271.341 68.508,271.365 68.469 C 271.426 68.371,271.337 68.121,271.252 68.149 C 271.214 68.162,271.149 68.274,271.108 68.398 C 270.987 68.763,270.867 68.732,270.867 68.336 C 270.867 68.047,270.885 67.997,270.983 68.014 C 271.102 68.034,271.112 67.990,271.031 67.783 C 270.997 67.695,271.011 67.675,271.088 67.705 C 271.165 67.734,271.181 67.710,271.154 67.605 C 271.108 67.429,271.021 67.427,270.966 67.601 C 270.943 67.675,270.898 67.720,270.868 67.701 C 270.837 67.681,270.796 67.704,270.777 67.750 C 270.755 67.801,270.725 67.778,270.698 67.688 C 270.674 67.608,270.613 67.527,270.563 67.508 C 270.492 67.481,270.486 67.509,270.535 67.639 C 270.570 67.730,270.591 67.826,270.583 67.852 C 270.574 67.879,270.593 67.905,270.626 67.911 C 270.709 67.926,270.799 68.081,270.794 68.200 C 270.791 68.268,270.779 68.273,270.756 68.217 C 270.737 68.171,270.678 68.133,270.623 68.133 C 270.508 68.133,270.560 68.370,270.709 68.518 C 270.814 68.623,270.829 68.733,270.738 68.733 C 270.704 68.733,270.658 68.681,270.636 68.617 C 270.614 68.552,270.524 68.447,270.435 68.383 L 270.273 68.265 270.311 68.483 C 270.332 68.602,270.350 68.782,270.351 68.883 C 270.352 69.017,270.386 69.067,270.476 69.067 C 270.544 69.067,270.600 69.112,270.600 69.167 C 270.600 69.222,270.645 69.267,270.700 69.267 C 270.814 69.267,270.836 69.437,270.730 69.502 C 270.692 69.525,270.583 69.494,270.489 69.432 C 270.394 69.370,270.337 69.353,270.362 69.393 C 270.427 69.497,270.330 69.484,270.205 69.372 C 270.115 69.290,270.082 69.290,269.973 69.370 C 269.859 69.454,269.857 69.467,269.956 69.505 C 270.017 69.529,270.067 69.593,270.067 69.649 C 270.067 69.735,270.083 69.736,270.176 69.659 C 270.274 69.578,270.281 69.584,270.238 69.717 C 270.187 69.878,270.259 69.914,270.383 69.790 C 270.440 69.733,270.449 69.754,270.418 69.874 L 270.376 70.033 270.621 69.847 C 270.912 69.625,270.930 69.668,270.691 70.013 C 270.563 70.197,270.492 70.249,270.434 70.200 C 270.344 70.126,269.933 70.238,269.933 70.338 C 269.933 70.493,270.341 70.852,270.477 70.817 C 270.578 70.790,270.609 70.806,270.587 70.873 C 270.541 71.009,270.350 71.026,270.228 70.904 C 270.094 70.770,270.001 70.825,270.050 71.010 C 270.076 71.108,270.063 71.139,270.011 71.107 C 269.775 70.961,269.723 71.186,269.942 71.407 C 270.383 71.853,270.426 72.129,270.055 72.132 C 269.713 72.135,269.688 72.291,269.982 72.609 C 270.155 72.797,270.101 72.908,269.872 72.835 C 269.672 72.772,269.654 72.898,269.833 73.106 C 269.962 73.257,270.014 73.279,270.078 73.215 C 270.205 73.088,270.251 73.118,270.216 73.302 C 270.186 73.459,270.124 73.521,269.708 73.815 C 269.567 73.916,269.555 73.952,269.620 74.089 C 269.694 74.247,270.042 74.433,270.080 74.335 C 270.112 74.253,270.400 74.183,270.400 74.257 C 270.400 74.294,270.325 74.383,270.233 74.455 C 270.130 74.536,270.081 74.626,270.105 74.689 C 270.146 74.796,269.966 74.844,269.476 74.857 C 269.286 74.862,269.067 74.749,269.067 74.646 C 269.067 74.587,269.334 74.546,269.367 74.600 C 269.405 74.663,269.667 74.608,269.667 74.537 C 269.667 74.511,269.591 74.448,269.498 74.399 C 269.405 74.349,269.342 74.273,269.359 74.229 C 269.376 74.185,269.356 74.116,269.315 74.075 C 269.260 74.020,269.269 74.000,269.349 74.000 C 269.427 74.000,269.455 73.948,269.445 73.822 C 269.427 73.583,269.310 73.558,269.174 73.764 C 269.022 73.997,268.921 73.976,268.946 73.717 C 268.960 73.569,268.998 73.505,269.067 73.516 C 269.131 73.526,269.170 73.472,269.176 73.366 C 269.187 73.184,269.136 73.157,269.013 73.280 C 268.908 73.386,268.904 73.247,269.007 73.054 C 269.060 72.955,269.060 72.930,269.007 72.963 C 268.964 72.989,268.933 72.960,268.933 72.893 C 268.933 72.830,268.915 72.796,268.892 72.819 C 268.869 72.842,268.852 72.989,268.854 73.147 C 268.857 73.396,268.847 73.418,268.771 73.317 C 268.724 73.252,268.666 73.200,268.643 73.200 C 268.554 73.200,268.605 73.339,268.733 73.449 C 268.891 73.583,268.909 73.679,268.767 73.624 C 268.705 73.601,268.667 73.624,268.667 73.686 C 268.667 73.741,268.716 73.805,268.776 73.828 C 268.836 73.851,268.867 73.888,268.844 73.911 C 268.822 73.934,268.765 73.923,268.718 73.887 C 268.502 73.719,268.383 73.725,268.428 73.901 C 268.475 74.091,268.325 74.198,268.180 74.078 C 268.129 74.035,268.058 74.031,268.000 74.067 C 267.938 74.105,267.885 74.097,267.853 74.046 C 267.766 73.910,267.793 73.783,267.900 73.824 C 267.955 73.845,268.066 73.838,268.147 73.808 L 268.295 73.753 268.131 73.662 C 268.041 73.613,267.949 73.577,267.927 73.582 C 267.905 73.588,267.884 73.505,267.881 73.397 C 267.878 73.280,267.910 73.200,267.960 73.200 C 268.015 73.200,268.034 73.132,268.014 73.000 C 267.981 72.773,267.830 72.733,267.767 72.933 C 267.717 73.091,267.646 73.102,267.536 72.970 C 267.444 72.859,267.496 72.733,267.635 72.733 C 267.691 72.733,267.714 72.693,267.691 72.633 C 267.669 72.576,267.689 72.533,267.740 72.533 C 267.807 72.533,267.809 72.515,267.747 72.454 C 267.685 72.392,267.645 72.403,267.569 72.504 C 267.454 72.655,267.430 72.527,267.536 72.329 C 267.574 72.258,267.581 72.198,267.552 72.195 C 267.524 72.192,267.441 72.179,267.369 72.165 C 267.297 72.152,267.200 72.173,267.153 72.212 C 267.091 72.263,267.021 72.252,266.900 72.173 C 266.708 72.047,266.679 71.917,266.850 71.943 C 266.914 71.953,267.034 71.923,267.117 71.878 C 267.199 71.833,267.267 71.817,267.267 71.844 C 267.267 71.870,267.309 71.834,267.361 71.763 C 267.476 71.606,267.432 71.514,267.267 71.567 C 267.200 71.588,267.125 71.573,267.100 71.533 C 267.075 71.494,266.996 71.480,266.923 71.503 C 266.841 71.529,266.741 71.501,266.662 71.429 C 266.510 71.292,266.492 71.170,266.631 71.223 C 266.685 71.244,266.749 71.229,266.773 71.190 C 266.804 71.140,266.830 71.140,266.861 71.190 C 266.909 71.269,267.200 71.217,267.200 71.129 C 267.200 71.099,267.114 71.023,267.008 70.961 C 266.805 70.841,266.755 70.551,266.911 70.396 C 266.957 70.349,266.967 70.251,266.937 70.143 C 266.910 70.046,266.900 69.922,266.915 69.867 C 266.940 69.778,266.936 69.778,266.873 69.867 C 266.834 69.922,266.800 69.937,266.798 69.900 C 266.795 69.863,266.743 69.938,266.680 70.065 C 266.539 70.353,266.440 70.342,266.413 70.035 C 266.395 69.832,266.412 69.800,266.537 69.800 C 266.656 69.800,266.668 69.782,266.604 69.705 C 266.543 69.631,266.550 69.597,266.638 69.548 C 266.719 69.503,266.728 69.471,266.671 69.436 C 266.625 69.408,266.548 69.440,266.491 69.510 C 266.381 69.646,266.386 69.451,266.501 69.177 C 266.547 69.066,266.538 69.062,266.416 69.139 C 266.308 69.206,266.285 69.275,266.308 69.462 C 266.332 69.663,266.327 69.677,266.271 69.550 C 266.196 69.382,266.029 69.340,266.093 69.505 C 266.115 69.563,266.133 69.653,266.133 69.705 C 266.133 69.757,266.169 69.793,266.213 69.783 C 266.256 69.774,266.304 69.819,266.318 69.883 C 266.335 69.963,266.312 69.988,266.247 69.963 C 266.186 69.939,266.137 69.980,266.112 70.074 C 266.080 70.198,266.057 70.208,265.971 70.137 C 265.881 70.063,265.871 70.086,265.884 70.326 C 265.896 70.529,265.928 70.599,266.010 70.600 C 266.070 70.600,266.136 70.644,266.157 70.699 C 266.179 70.755,266.239 70.781,266.297 70.758 C 266.364 70.733,266.400 70.757,266.400 70.826 C 266.400 70.925,266.261 70.974,266.100 70.932 C 266.063 70.922,265.983 70.917,265.921 70.919 C 265.859 70.922,265.774 70.882,265.731 70.831 C 265.665 70.750,265.640 70.750,265.560 70.830 C 265.433 70.958,265.441 70.979,265.636 71.028 C 265.729 71.051,265.787 71.100,265.765 71.135 C 265.743 71.171,265.770 71.200,265.824 71.200 C 265.878 71.200,265.935 71.237,265.950 71.282 C 265.969 71.342,266.027 71.331,266.161 71.243 C 266.398 71.088,266.439 71.133,266.263 71.357 C 266.153 71.496,266.079 71.528,265.912 71.508 C 265.486 71.458,265.405 71.551,265.666 71.789 C 265.792 71.905,265.932 71.992,265.977 71.983 C 266.021 71.974,266.067 71.997,266.079 72.033 C 266.091 72.070,266.033 72.110,265.950 72.121 C 265.868 72.133,265.800 72.111,265.800 72.071 C 265.800 72.032,265.755 72.000,265.700 72.000 C 265.645 72.000,265.600 72.045,265.600 72.100 C 265.600 72.156,265.541 72.200,265.467 72.200 C 265.274 72.200,265.300 72.269,265.604 72.555 C 265.915 72.847,265.914 72.953,265.600 73.000 C 265.329 73.041,265.278 73.154,265.462 73.312 C 265.645 73.468,265.636 73.533,265.433 73.533 C 265.232 73.533,265.222 73.605,265.399 73.766 C 265.508 73.864,265.549 73.870,265.634 73.800 C 265.772 73.685,265.817 73.746,265.742 73.945 C 265.703 74.047,265.577 74.148,265.406 74.215 C 265.110 74.332,265.097 74.326,265.207 74.120 C 265.289 73.967,265.185 73.851,265.023 73.913 C 264.974 73.932,264.933 73.911,264.933 73.867 C 264.933 73.822,264.888 73.803,264.833 73.824 C 264.696 73.877,264.427 73.767,264.378 73.639 C 264.346 73.554,264.379 73.540,264.557 73.563 C 264.732 73.585,264.812 73.553,264.955 73.401 C 265.193 73.149,265.181 73.109,264.880 73.157 C 264.705 73.185,264.581 73.166,264.480 73.095 C 264.290 72.962,264.292 72.854,264.483 72.900 C 264.658 72.942,265.095 72.700,265.031 72.596 C 265.008 72.559,264.931 72.546,264.861 72.568 C 264.785 72.593,264.733 72.577,264.733 72.531 C 264.733 72.480,264.673 72.467,264.560 72.496 C 264.426 72.529,264.351 72.500,264.227 72.366 C 264.020 72.143,264.023 72.137,264.302 72.200 C 264.537 72.253,264.800 72.222,264.800 72.142 C 264.800 72.091,264.517 71.901,264.463 71.915 C 264.443 71.920,264.423 71.822,264.420 71.696 C 264.415 71.546,264.444 71.467,264.502 71.467 C 264.560 71.467,264.583 71.404,264.567 71.283 C 264.553 71.182,264.540 71.063,264.538 71.019 C 264.530 70.878,264.349 71.001,264.265 71.205 C 264.166 71.444,264.083 71.454,264.027 71.233 C 263.970 71.005,264.036 70.859,264.172 70.911 C 264.260 70.945,264.273 70.925,264.237 70.810 C 264.206 70.715,264.219 70.667,264.276 70.667 C 264.341 70.667,264.342 70.649,264.280 70.587 C 264.218 70.525,264.179 70.536,264.102 70.637 C 263.976 70.804,263.955 70.609,264.074 70.386 C 264.138 70.266,264.133 70.253,264.036 70.290 C 263.973 70.314,263.912 70.333,263.899 70.333 C 263.886 70.333,263.887 70.446,263.902 70.583 C 263.917 70.721,263.913 70.783,263.894 70.722 C 263.875 70.661,263.814 70.594,263.759 70.573 C 263.629 70.523,263.705 70.806,263.842 70.887 C 263.892 70.916,263.933 70.991,263.932 71.053 C 263.931 71.151,263.922 71.153,263.866 71.067 C 263.811 70.983,263.793 70.992,263.759 71.117 C 263.713 71.286,263.662 71.302,263.547 71.187 C 263.486 71.126,263.471 71.171,263.484 71.387 C 263.496 71.602,263.527 71.666,263.617 71.666 C 263.681 71.667,263.733 71.697,263.733 71.733 C 263.733 71.770,263.796 71.800,263.872 71.800 C 263.955 71.800,263.999 71.834,263.982 71.883 C 263.944 71.990,263.391 71.960,263.320 71.847 C 263.293 71.803,263.205 71.487,263.126 71.145 C 262.993 70.576,262.969 70.527,262.840 70.559 C 262.720 70.589,262.656 70.513,262.402 70.037 L 262.104 69.479 261.953 69.700 C 261.646 70.153,261.344 70.097,261.145 69.551 C 260.958 69.038,260.854 68.907,260.628 68.903 C 260.380 68.899,259.678 67.429,259.807 67.186 C 259.862 67.085,259.860 67.037,259.800 67.000 C 259.740 66.963,259.738 66.916,259.793 66.813 C 259.845 66.715,259.846 66.662,259.796 66.631 C 259.756 66.606,259.740 66.546,259.759 66.497 C 259.779 66.444,259.759 66.420,259.712 66.438 C 259.667 66.455,259.577 66.620,259.512 66.803 C 259.364 67.219,259.267 67.173,259.267 66.689 C 259.267 66.391,259.286 66.326,259.365 66.357 C 259.491 66.405,259.571 66.277,259.474 66.181 C 259.376 66.083,259.380 66.000,259.483 66.000 C 259.529 66.000,259.567 65.929,259.567 65.842 C 259.567 65.743,259.536 65.696,259.483 65.716 C 259.437 65.733,259.400 65.803,259.400 65.870 C 259.400 65.937,259.365 66.013,259.323 66.040 C 259.245 66.088,259.269 65.774,259.372 65.400 L 259.418 65.233 259.283 65.373 C 259.175 65.484,259.152 65.579,259.172 65.840 C 259.189 66.053,259.180 66.111,259.147 66.005 C 259.078 65.784,258.897 65.723,258.956 65.941 C 258.979 66.028,258.999 66.153,258.999 66.217 C 259.000 66.281,259.037 66.326,259.082 66.317 C 259.127 66.308,259.171 66.375,259.180 66.467 C 259.189 66.558,259.180 66.598,259.161 66.554 C 259.105 66.430,258.944 66.527,258.980 66.663 C 259.020 66.816,258.880 66.913,258.826 66.771 C 258.742 66.552,258.684 66.679,258.744 66.949 C 258.779 67.104,258.794 67.283,258.777 67.346 C 258.759 67.418,258.794 67.477,258.870 67.501 C 258.938 67.523,259.011 67.597,259.033 67.667 C 259.057 67.743,259.112 67.778,259.170 67.756 C 259.296 67.708,259.295 67.827,259.168 67.933 C 259.109 67.981,259.020 67.994,258.951 67.964 C 258.886 67.936,258.797 67.910,258.753 67.906 C 258.709 67.903,258.627 67.840,258.572 67.767 C 258.482 67.648,258.471 67.646,258.469 67.750 C 258.468 67.814,258.437 67.867,258.400 67.867 C 258.363 67.867,258.333 67.897,258.333 67.933 C 258.333 67.970,258.380 68.000,258.438 68.000 C 258.516 68.000,258.530 68.038,258.495 68.149 C 258.451 68.288,258.457 68.291,258.570 68.199 C 258.641 68.142,258.671 68.135,258.642 68.183 C 258.561 68.319,258.663 68.419,258.782 68.320 C 258.872 68.246,258.880 68.254,258.839 68.383 C 258.800 68.505,258.812 68.525,258.903 68.489 C 259.001 68.452,259.005 68.466,258.936 68.594 C 258.874 68.711,258.838 68.726,258.764 68.665 C 258.691 68.604,258.632 68.618,258.492 68.728 C 258.393 68.805,258.307 68.861,258.299 68.851 C 258.291 68.841,258.113 68.548,257.902 68.200 C 257.458 67.464,256.828 66.620,256.654 66.527 C 256.588 66.491,256.471 66.339,256.395 66.189 C 256.247 65.901,256.016 65.653,255.722 65.472 C 255.625 65.411,255.408 65.183,255.241 64.964 C 255.073 64.746,254.883 64.499,254.817 64.416 L 254.698 64.265 254.285 64.760 C 253.960 65.150,253.843 65.248,253.736 65.220 C 253.559 65.174,253.296 65.349,253.166 65.601 C 253.036 65.852,252.783 65.866,252.450 65.640 L 252.214 65.480 251.926 65.774 C 251.725 65.979,251.592 66.062,251.483 66.050 C 251.350 66.036,251.301 66.097,251.133 66.494 C 250.902 67.036,250.769 67.192,250.362 67.395 C 250.038 67.557,249.801 67.863,249.664 68.298 C 249.581 68.559,249.579 68.560,249.482 68.415 C 249.294 68.132,249.056 68.312,248.776 68.950 C 248.600 69.351,248.495 69.451,248.550 69.167 C 248.593 68.941,248.575 68.953,248.356 69.300 C 248.090 69.721,247.889 69.714,247.490 69.270 L 247.193 68.939 246.980 69.069 C 246.648 69.272,246.368 69.244,246.266 68.998 C 246.159 68.739,245.898 68.534,245.674 68.532 C 245.536 68.531,245.425 68.429,245.133 68.035 C 244.704 67.455,244.737 67.469,244.476 67.767 C 244.216 68.062,244.220 68.063,243.647 67.676 C 243.134 67.329,242.940 67.129,242.153 66.133 C 240.896 64.543,240.263 63.973,239.884 64.089 C 239.624 64.169,239.167 64.072,238.635 63.824 C 238.234 63.637,237.898 63.625,237.652 63.787 C 237.315 64.010,236.144 65.099,236.097 65.233 C 235.996 65.527,234.836 66.267,234.477 66.267 C 234.441 66.267,234.251 66.413,234.055 66.591 C 233.352 67.233,232.706 67.410,232.300 67.072 C 232.227 67.011,232.079 66.917,231.971 66.864 C 231.615 66.687,231.359 66.376,231.161 65.882 C 230.995 65.468,230.945 65.400,230.819 65.415 C 230.718 65.428,230.566 65.329,230.332 65.100 C 230.034 64.808,229.984 64.781,229.927 64.881 C 229.815 65.080,229.134 65.189,229.133 65.010 C 229.132 64.855,228.797 64.579,228.566 64.541 C 228.346 64.505,228.243 64.425,227.915 64.033 C 227.421 63.444,227.493 63.444,227.003 64.030 C 226.773 64.305,226.454 64.606,226.294 64.700 C 226.018 64.862,225.667 65.241,225.667 65.377 C 225.667 65.412,225.500 65.585,225.296 65.762 C 224.731 66.249,223.875 66.100,223.017 65.366 C 222.879 65.248,222.459 64.997,222.085 64.809 C 221.710 64.621,221.245 64.366,221.051 64.241 C 220.096 63.631,219.725 63.654,219.025 64.367 C 218.505 64.897,217.992 65.276,217.345 65.607 C 217.018 65.774,216.723 65.988,216.527 66.201 C 216.359 66.385,216.080 66.635,215.907 66.758 C 215.734 66.882,215.443 67.150,215.261 67.354 C 214.960 67.692,214.901 67.728,214.621 67.746 C 214.430 67.759,214.295 67.805,214.265 67.867 C 214.238 67.922,214.079 68.253,213.912 68.602 C 213.538 69.385,213.308 69.588,212.489 69.857 C 211.411 70.212,210.596 70.323,210.467 70.133 C 210.448 70.106,210.313 69.947,210.167 69.779 C 210.009 69.599,209.802 69.236,209.660 68.888 C 209.434 68.333,209.408 68.298,209.196 68.267 C 209.004 68.238,208.940 68.176,208.748 67.833 C 208.464 67.328,208.025 66.756,207.784 66.577 C 207.574 66.423,207.194 65.871,206.643 64.922 C 206.096 63.980,205.842 63.820,205.295 64.069 C 204.759 64.313,204.463 64.400,204.168 64.400 C 203.862 64.400,203.601 64.667,202.994 65.599 C 202.544 66.289,202.252 66.511,201.618 66.644 C 201.373 66.695,201.051 66.808,200.903 66.894 C 200.754 66.980,200.498 67.072,200.333 67.099 C 199.875 67.172,199.530 67.353,199.202 67.692 C 198.910 67.996,198.899 68.000,198.582 67.958 C 198.117 67.896,197.967 68.003,197.662 68.610 C 197.250 69.429,196.206 70.133,195.403 70.133 C 195.031 70.133,194.217 70.972,193.813 71.771 C 193.571 72.251,193.514 72.265,192.733 72.040 C 192.228 71.895,192.003 71.907,191.729 72.093 C 191.600 72.181,191.381 72.284,191.243 72.322 C 191.104 72.360,190.766 72.532,190.491 72.703 L 189.991 73.015 189.846 72.879 C 189.222 72.296,188.730 72.116,188.196 72.276 C 187.871 72.373,187.260 71.868,186.697 71.034 C 186.199 70.296,185.457 69.533,185.237 69.533 C 184.886 69.533,183.933 70.761,183.933 71.214 C 183.933 71.476,183.822 71.771,183.658 71.948 C 183.571 72.041,183.395 72.262,183.267 72.440 C 183.138 72.617,182.902 72.910,182.742 73.092 C 182.469 73.402,182.000 74.259,182.000 74.448 C 182.000 74.589,181.865 74.550,181.129 74.194 C 180.415 73.848,179.867 73.271,179.867 72.864 C 179.867 72.700,179.648 72.533,179.434 72.533 C 179.076 72.533,178.326 71.582,178.458 71.293 C 178.515 71.167,178.507 71.124,178.414 71.069 C 178.308 71.005,178.309 70.993,178.429 70.900 C 178.501 70.845,178.523 70.800,178.479 70.800 C 178.436 70.800,178.400 70.752,178.400 70.693 C 178.400 70.627,178.437 70.600,178.495 70.622 C 178.638 70.677,178.787 70.475,178.662 70.395 C 178.549 70.322,178.682 70.203,178.878 70.201 C 179.062 70.199,179.200 70.125,179.200 70.026 C 179.200 69.975,179.140 69.933,179.067 69.933 C 178.992 69.933,178.933 69.889,178.933 69.832 C 178.933 69.696,178.670 69.746,178.355 69.941 C 178.122 70.084,178.112 70.085,178.024 69.965 C 177.882 69.771,177.906 69.577,178.068 69.620 C 178.199 69.654,178.400 69.518,178.400 69.395 C 178.400 69.361,178.355 69.333,178.300 69.333 C 178.152 69.333,178.178 69.256,178.383 69.088 L 178.567 68.938 178.346 68.936 C 178.216 68.934,178.142 68.906,178.167 68.867 C 178.209 68.797,178.097 68.777,177.783 68.798 C 177.656 68.806,177.600 68.778,177.600 68.705 C 177.600 68.601,177.665 68.575,177.874 68.595 C 177.944 68.602,177.996 68.536,178.022 68.408 C 178.053 68.251,178.088 68.218,178.196 68.246 C 178.298 68.273,178.348 68.237,178.399 68.103 C 178.499 67.840,178.481 67.749,178.363 67.918 C 178.212 68.134,178.102 68.100,178.088 67.833 C 178.082 67.705,178.103 67.600,178.137 67.600 C 178.170 67.600,178.162 67.523,178.119 67.428 C 178.059 67.297,178.059 67.227,178.120 67.129 C 178.263 66.900,178.218 66.740,178.063 66.926 C 177.914 67.104,177.821 67.080,177.924 66.890 C 178.073 66.617,178.129 66.339,178.028 66.378 C 177.976 66.398,177.933 66.441,177.933 66.474 C 177.933 66.507,177.902 66.533,177.864 66.533 C 177.820 66.533,177.811 66.444,177.839 66.293 C 177.881 66.072,177.873 66.056,177.748 66.095 C 177.673 66.119,177.592 66.108,177.568 66.069 C 177.495 65.951,177.404 65.993,177.361 66.166 C 177.314 66.353,177.200 66.328,177.200 66.131 C 177.200 66.045,177.168 66.017,177.098 66.043 C 177.034 66.068,177.011 66.129,177.036 66.208 C 177.063 66.294,177.043 66.333,176.971 66.333 C 176.914 66.333,176.867 66.386,176.868 66.450 C 176.868 66.541,176.881 66.547,176.926 66.476 C 176.966 66.413,176.997 66.408,177.029 66.460 C 177.089 66.557,177.017 66.667,176.892 66.667 C 176.837 66.667,176.811 66.697,176.833 66.733 C 176.909 66.857,176.796 66.946,176.681 66.853 C 176.592 66.781,176.584 66.782,176.630 66.859 C 176.758 67.072,176.726 67.481,176.590 67.358 C 176.522 67.296,176.450 67.261,176.431 67.280 C 176.412 67.299,176.441 67.351,176.494 67.395 C 176.594 67.478,176.566 67.694,176.464 67.632 C 176.433 67.613,176.413 67.657,176.418 67.730 C 176.424 67.803,176.467 67.878,176.514 67.896 C 176.633 67.942,176.622 68.067,176.500 68.067 C 176.368 68.067,176.373 68.164,176.513 68.303 C 176.619 68.409,176.619 68.421,176.509 68.502 C 176.435 68.556,176.418 68.603,176.463 68.631 C 176.619 68.727,176.540 68.866,176.367 68.800 C 176.257 68.758,176.200 68.760,176.200 68.804 C 176.200 68.841,176.247 68.889,176.304 68.911 C 176.361 68.933,176.391 68.993,176.372 69.045 C 176.322 69.174,176.470 69.394,176.579 69.353 C 176.627 69.334,176.667 69.356,176.667 69.401 C 176.667 69.460,176.590 69.471,176.400 69.441 C 176.143 69.400,176.029 69.479,176.232 69.557 C 176.287 69.578,176.315 69.638,176.294 69.691 C 176.274 69.743,176.290 69.806,176.329 69.831 C 176.432 69.895,176.416 70.067,176.306 70.067 C 176.251 70.067,176.224 70.114,176.240 70.183 C 176.291 70.394,176.178 70.484,175.977 70.393 C 175.880 70.348,175.800 70.287,175.800 70.256 C 175.800 70.225,175.771 70.200,175.736 70.200 C 175.701 70.200,175.723 70.288,175.785 70.395 C 175.846 70.502,175.920 70.575,175.948 70.557 C 176.037 70.503,176.004 70.625,175.883 70.806 C 175.635 71.175,174.898 72.002,174.785 72.038 C 174.720 72.059,174.667 72.101,174.667 72.132 C 174.667 72.163,174.530 72.241,174.364 72.305 C 174.021 72.436,173.826 72.671,173.692 73.116 C 173.468 73.861,173.159 74.152,172.898 73.865 C 172.831 73.791,172.519 73.594,172.205 73.428 C 170.882 72.729,170.748 72.532,170.356 70.704 C 170.309 70.482,170.247 70.410,169.954 70.238 C 168.883 69.606,167.882 68.151,167.711 66.977 C 167.619 66.350,167.491 66.135,167.206 66.131 C 167.111 66.130,166.958 66.086,166.867 66.033 C 166.536 65.844,166.276 65.980,165.956 66.506 C 165.884 66.626,165.874 66.626,165.790 66.519 C 165.740 66.456,165.524 66.327,165.309 66.233 L 164.919 66.062 164.563 66.330 C 163.703 66.979,163.221 66.912,162.572 66.050 C 162.299 65.687,161.999 65.744,161.426 66.268 C 161.235 66.443,161.064 66.533,160.860 66.566 C 160.396 66.640,160.267 66.754,160.267 67.088 C 160.267 67.474,159.228 68.467,158.824 68.467 C 158.566 68.467,158.465 68.542,158.228 68.912 C 157.922 69.391,157.638 69.316,157.284 68.667 C 157.200 68.513,157.078 68.408,156.928 68.358 C 156.687 68.278,156.468 67.994,156.467 67.760 C 156.467 67.620,156.228 67.233,155.607 66.367 C 155.224 65.832,154.969 65.453,154.739 65.073 C 154.567 64.789,154.407 64.702,153.943 64.637 C 153.324 64.550,153.029 64.185,152.743 63.151 C 152.542 62.426,152.361 62.144,151.650 61.452 L 150.984 60.803 151.029 60.445 L 151.074 60.088 150.704 59.809 L 150.335 59.530 150.070 59.665 C 149.460 59.976,148.570 59.812,148.126 59.308 C 147.524 58.623,147.120 58.493,146.568 58.805 C 146.329 58.940,146.158 58.996,146.069 58.967 C 145.631 58.828,144.985 59.148,144.635 59.676 C 144.413 60.011,144.239 60.009,143.824 59.664 L 143.500 59.395 143.324 59.591 C 143.222 59.704,143.127 59.909,143.099 60.077 C 142.916 61.188,142.182 62.127,141.492 62.132 C 141.234 62.134,140.968 62.337,140.805 62.656 C 140.617 63.025,140.521 63.088,139.684 63.401 C 139.566 63.446,139.311 63.642,139.118 63.837 L 138.767 64.192 137.600 64.207 C 136.958 64.215,136.320 64.198,136.181 64.170 C 135.943 64.121,135.914 64.133,135.705 64.375 C 135.334 64.805,134.384 64.695,133.560 64.129 C 133.404 64.021,133.253 63.933,133.226 63.933 C 133.198 63.933,133.050 63.873,132.897 63.798 C 132.668 63.688,132.583 63.676,132.427 63.736 C 132.258 63.800,132.224 63.789,132.113 63.637 C 131.941 63.402,131.928 63.408,131.489 63.932 C 131.226 64.247,131.052 64.398,130.953 64.399 C 130.708 64.401,130.471 64.544,130.326 64.778 C 130.157 65.053,129.796 65.088,129.504 64.858 L 129.323 64.715 129.009 65.024 C 128.830 65.200,128.633 65.333,128.551 65.333 C 128.435 65.333,128.355 65.444,128.145 65.891 C 127.897 66.421,127.470 66.867,127.211 66.867 C 127.091 66.867,126.819 67.252,126.696 67.594 C 126.583 67.907,126.566 67.923,126.459 67.827 C 126.229 67.618,126.050 67.732,125.797 68.247 C 125.516 68.819,125.435 68.915,125.497 68.600 C 125.542 68.374,125.536 68.378,125.323 68.717 C 125.022 69.195,124.778 69.207,124.355 68.765 L 124.066 68.463 123.883 68.595 C 123.526 68.851,123.240 68.845,123.082 68.577 C 122.913 68.290,122.645 68.106,122.466 68.153 C 122.362 68.180,122.242 68.079,121.924 67.694 C 121.430 67.097,121.492 67.100,121.041 67.650 C 120.838 67.897,120.499 68.220,120.288 68.367 C 120.078 68.513,119.836 68.738,119.752 68.867 C 119.668 68.995,119.397 69.310,119.149 69.567 C 118.776 69.955,117.831 71.258,117.709 71.552 C 117.688 71.605,117.614 71.566,117.500 71.441 C 117.403 71.335,117.302 71.275,117.274 71.308 C 117.246 71.340,117.158 71.453,117.078 71.559 L 116.934 71.751 116.829 71.492 C 116.771 71.350,116.688 71.145,116.645 71.038 C 116.193 69.911,115.580 69.059,115.363 69.258 C 114.771 69.802,113.434 68.842,113.100 67.633 C 112.721 66.262,112.669 65.699,112.839 64.856 L 112.946 64.332 112.756 64.111 C 112.652 63.989,112.412 63.807,112.224 63.707 C 112.019 63.598,111.703 63.326,111.436 63.029 C 111.153 62.714,110.829 62.439,110.544 62.273 C 109.929 61.913,109.563 61.233,109.475 60.284 C 109.414 59.623,109.327 59.423,108.965 59.119 C 108.802 58.981,108.708 58.804,108.572 58.379 L 108.395 57.820 107.977 57.610 C 107.593 57.417,107.532 57.355,107.232 56.850 C 107.052 56.548,106.832 56.226,106.742 56.136 L 106.579 55.973 106.481 56.120 C 106.203 56.539,105.743 55.693,105.637 54.567 C 105.596 54.123,105.534 53.929,105.269 53.405 C 104.765 52.410,103.670 53.910,102.092 57.761 C 101.737 58.626,101.140 59.813,100.316 61.289 C 99.421 62.894,98.849 64.036,98.642 64.633 C 98.335 65.515,98.370 65.466,98.235 65.200 C 98.003 64.741,97.963 64.726,97.679 64.994 C 97.540 65.126,97.158 65.396,96.830 65.596 C 96.502 65.795,96.079 66.104,95.890 66.282 L 95.547 66.606 95.410 66.414 C 95.334 66.308,95.209 66.051,95.131 65.843 L 94.989 65.464 94.780 65.640 C 94.480 65.893,94.194 66.288,93.868 66.900 C 93.248 68.067,92.917 68.419,91.772 69.131 L 91.111 69.542 90.383 68.821 C 89.521 67.968,89.412 67.810,89.065 66.911 C 88.632 65.791,88.472 65.704,87.629 66.132 C 86.564 66.672,86.239 66.987,85.996 67.713 C 85.650 68.750,85.368 68.725,84.613 67.592 C 84.410 67.288,84.039 66.872,83.692 66.558 C 82.822 65.774,82.606 65.542,82.299 65.067 C 81.948 64.523,80.697 62.171,80.575 61.823 C 80.175 60.691,79.697 60.067,79.230 60.067 C 78.799 60.067,78.756 60.031,78.432 59.409 C 78.138 58.846,78.051 58.720,77.299 57.767 C 77.096 57.510,76.774 56.990,76.583 56.610 C 75.875 55.206,75.545 55.144,74.431 56.206 L 73.789 56.817 73.373 56.775 C 73.145 56.751,72.674 56.638,72.329 56.524 C 71.821 56.355,71.572 56.312,71.033 56.298 C 69.706 56.265,69.099 55.588,68.498 53.467 C 68.472 53.375,68.255 52.805,68.017 52.200 C 67.241 50.232,67.095 49.794,66.758 48.433 C 66.703 48.213,66.635 47.500,66.606 46.849 C 66.541 45.410,66.431 45.130,65.484 44.006 C 64.515 42.855,64.505 42.838,64.517 42.317 C 64.531 41.771,64.434 41.733,63.942 42.092 C 63.618 42.329,62.780 42.594,62.178 42.650 C 61.694 42.695,61.393 42.349,61.040 41.339 C 60.946 41.070,60.841 40.816,60.808 40.775 C 60.774 40.734,60.651 40.452,60.535 40.150 C 60.377 39.738,60.266 39.556,60.097 39.426 C 59.794 39.196,59.527 38.615,59.487 38.105 C 59.455 37.680,59.354 37.333,59.264 37.333 C 59.234 37.333,59.119 37.242,59.007 37.130 C 58.763 36.886,58.707 36.906,58.242 37.397 C 58.064 37.586,57.786 37.802,57.625 37.878 C 57.464 37.953,57.315 38.042,57.295 38.074 C 56.939 38.651,55.830 37.096,55.697 35.833 C 55.678 35.650,55.632 35.215,55.595 34.867 C 55.344 32.503,54.501 30.126,52.867 27.167 C 52.365 26.258,51.285 24.137,50.835 23.180 C 50.668 22.824,50.620 22.777,50.239 22.603 C 49.717 22.363,49.466 22.078,49.234 21.458 C 48.858 20.452,48.538 19.999,48.252 20.071 C 48.242 20.074,48.053 20.129,47.833 20.194 M270.808 67.021 C 270.804 67.160,270.773 67.258,270.739 67.237 C 270.705 67.216,270.712 67.289,270.753 67.399 L 270.829 67.599 270.912 67.319 C 270.957 67.165,270.981 67.025,270.964 67.008 C 270.947 66.991,270.930 67.020,270.925 67.072 C 270.921 67.124,270.895 67.077,270.867 66.967 C 270.816 66.769,270.816 66.770,270.808 67.021 M259.177 66.970 C 259.239 67.131,259.152 67.160,259.070 67.006 C 259.018 66.909,259.017 66.867,259.066 66.867 C 259.106 66.867,259.155 66.913,259.177 66.970 M259.461 67.411 C 259.413 67.501,259.366 67.532,259.351 67.485 C 259.336 67.441,259.363 67.362,259.412 67.309 C 259.535 67.175,259.560 67.226,259.461 67.411 M177.333 67.400 C 177.333 67.437,177.290 67.467,177.237 67.467 C 177.184 67.467,177.123 67.437,177.100 67.400 C 177.077 67.363,177.121 67.333,177.196 67.333 C 177.272 67.333,177.333 67.363,177.333 67.400 M277.604 68.021 C 277.602 68.124,277.571 68.190,277.536 68.168 C 277.500 68.146,277.506 68.226,277.548 68.348 L 277.625 68.567 277.679 68.356 C 277.710 68.237,277.707 68.078,277.671 67.990 C 277.610 67.836,277.608 67.837,277.604 68.021 M266.333 70.308 C 266.333 70.363,266.303 70.389,266.267 70.367 C 266.230 70.344,266.200 70.280,266.200 70.225 C 266.200 70.170,266.230 70.144,266.267 70.167 C 266.303 70.189,266.333 70.253,266.333 70.308 M266.633 70.534 C 266.566 70.607,266.497 70.653,266.480 70.635 C 266.435 70.591,266.601 70.400,266.685 70.400 C 266.723 70.400,266.700 70.460,266.633 70.534 M275.633 71.134 C 275.566 71.207,275.497 71.253,275.480 71.235 C 275.435 71.191,275.601 71.000,275.685 71.000 C 275.723 71.000,275.700 71.060,275.633 71.134 M264.233 71.600 C 264.166 71.674,264.097 71.720,264.080 71.702 C 264.035 71.657,264.201 71.467,264.285 71.467 C 264.323 71.467,264.300 71.527,264.233 71.600 M263.919 72.280 C 263.723 72.574,263.261 72.545,263.444 72.250 C 263.467 72.212,263.505 72.221,263.536 72.271 C 263.578 72.339,263.621 72.334,263.745 72.249 C 263.964 72.096,264.033 72.108,263.919 72.280 M267.183 72.701 C 267.303 72.728,267.400 72.778,267.400 72.812 C 267.400 72.847,267.373 72.858,267.341 72.838 C 267.308 72.818,267.245 72.846,267.200 72.900 C 267.128 72.987,267.095 72.985,266.926 72.885 C 266.565 72.672,266.684 72.587,267.183 72.701 M274.769 73.179 C 274.897 73.375,274.827 73.489,274.598 73.456 C 274.416 73.429,274.254 73.200,274.383 73.153 C 274.429 73.136,274.467 73.081,274.467 73.030 C 274.467 72.896,274.639 72.982,274.769 73.179 M267.431 73.604 C 267.384 73.680,267.200 73.688,267.200 73.614 C 267.200 73.585,267.261 73.557,267.335 73.552 C 267.409 73.546,267.452 73.570,267.431 73.604 M274.554 73.860 C 274.613 73.919,274.576 73.935,274.399 73.924 C 274.125 73.908,274.052 73.878,274.099 73.801 C 274.147 73.724,274.458 73.765,274.554 73.860 M276.304 74.072 C 276.367 74.175,276.243 74.279,276.116 74.230 C 276.058 74.208,275.994 74.147,275.974 74.095 C 275.930 73.980,276.234 73.960,276.304 74.072 M268.667 74.200 C 268.667 74.237,268.712 74.267,268.767 74.267 C 268.822 74.267,268.867 74.297,268.867 74.333 C 268.867 74.370,268.793 74.400,268.704 74.400 C 268.614 74.400,268.523 74.370,268.500 74.333 C 268.451 74.255,268.514 74.133,268.604 74.133 C 268.638 74.133,268.667 74.163,268.667 74.200 M274.643 74.501 C 274.545 74.572,274.492 74.575,274.393 74.513 C 274.227 74.410,274.231 74.309,274.400 74.353 C 274.473 74.372,274.552 74.358,274.574 74.321 C 274.600 74.279,274.642 74.283,274.691 74.332 C 274.748 74.390,274.736 74.432,274.643 74.501 M265.207 74.547 C 265.246 74.619,265.256 74.698,265.230 74.722 C 265.203 74.747,265.168 74.729,265.152 74.683 C 265.133 74.631,265.061 74.615,264.960 74.641 C 264.805 74.680,264.600 74.578,264.600 74.463 C 264.600 74.293,265.109 74.363,265.207 74.547 M268.117 74.442 C 268.279 74.486,268.325 74.667,268.174 74.667 C 268.123 74.667,268.011 74.608,267.924 74.536 C 267.758 74.397,267.826 74.364,268.117 74.442 M268.743 74.739 C 268.579 74.872,268.467 74.903,268.467 74.815 C 268.467 74.746,268.823 74.534,268.866 74.577 C 268.885 74.596,268.829 74.669,268.743 74.739 M265.933 74.668 C 265.933 74.706,265.861 74.769,265.772 74.810 C 265.683 74.850,265.625 74.921,265.642 74.966 C 265.661 75.016,265.604 75.063,265.502 75.083 C 265.296 75.122,265.230 75.047,265.368 74.932 C 265.450 74.864,265.453 74.830,265.384 74.746 C 265.312 74.658,265.321 74.649,265.450 74.682 C 265.532 74.703,265.617 74.694,265.637 74.660 C 265.688 74.578,265.933 74.584,265.933 74.668 M274.933 74.993 C 274.933 75.052,274.777 75.133,274.661 75.133 C 274.552 75.133,274.596 75.011,274.717 74.979 C 274.909 74.929,274.933 74.931,274.933 74.993 M268.267 75.140 C 268.267 75.217,268.086 75.218,268.039 75.143 C 268.020 75.111,268.021 75.068,268.042 75.047 C 268.094 74.995,268.267 75.067,268.267 75.140 M269.525 75.390 C 269.449 75.417,269.267 75.275,269.267 75.189 C 269.267 75.155,269.339 75.181,269.427 75.247 C 269.515 75.313,269.559 75.377,269.525 75.390 M272.733 75.318 C 272.733 75.453,272.397 75.553,272.219 75.472 C 271.936 75.343,272.033 75.209,272.400 75.222 C 272.619 75.229,272.733 75.262,272.733 75.318 M270.097 75.611 C 270.432 75.764,270.138 76.022,269.704 75.956 C 269.203 75.880,269.024 75.682,269.492 75.723 C 269.628 75.734,269.743 75.702,269.797 75.637 C 269.900 75.513,269.885 75.514,270.097 75.611 M272.875 75.917 C 272.825 75.935,272.727 76.006,272.658 76.075 C 272.531 76.202,272.267 76.247,272.267 76.142 C 272.267 76.070,272.886 75.796,272.933 75.847 C 272.951 75.868,272.925 75.900,272.875 75.917 M269.707 76.469 C 269.834 76.518,269.867 76.559,269.818 76.609 C 269.739 76.688,269.467 76.576,269.467 76.464 C 269.467 76.384,269.483 76.384,269.707 76.469 M272.448 77.357 C 272.378 77.569,271.867 77.396,271.867 77.160 C 271.867 77.093,271.932 77.097,272.170 77.178 C 272.336 77.235,272.462 77.316,272.448 77.357 " stroke="none" fill="url(#svg-gradient)" fill-rule="evenodd"></path></g>
</svg>