<svg id="svg" xmlns="http://www.w3.org/2000/svg" xmlns:xlink="http://www.w3.org/1999/xlink" width="400" height="133.33333333333334" viewBox="0, 0, 400,133.33333333333334">
    <defs>
      <linearGradient id="svg-gradient" x1="0" x2="0" y1="0" y2="1">
        <stop offset="11%" stop-color="#ff7777"/>
        <stop offset="100%" stop-color="#ffd2d2"/>
      </linearGradient>
  </defs>
  <g id="svgg"><path id="path0" d="M17.000 28.682 C 16.643 29.219,15.779 30.128,15.622 30.131 C 15.579 30.132,15.454 30.058,15.345 29.967 C 15.093 29.754,15.137 29.737,14.784 30.192 C 14.531 30.518,14.452 30.579,14.317 30.553 C 14.171 30.525,14.145 30.555,14.065 30.844 C 13.813 31.752,13.648 32.005,13.000 32.474 C 12.758 32.650,12.509 33.107,12.423 33.533 C 12.379 33.756,12.304 33.789,12.212 33.624 C 12.106 33.435,11.838 33.561,11.701 33.865 C 11.600 34.089,11.548 34.133,11.387 34.133 C 11.251 34.133,11.101 34.221,10.874 34.433 C 10.627 34.664,10.502 34.733,10.332 34.733 C 10.157 34.733,10.056 34.794,9.839 35.029 C 9.493 35.406,9.250 35.504,8.930 35.399 C 8.735 35.335,8.647 35.340,8.438 35.427 C 8.298 35.485,8.083 35.533,7.959 35.533 C 7.749 35.533,7.721 35.562,7.508 35.983 C 7.238 36.519,7.147 36.609,6.646 36.830 C 6.273 36.996,5.954 37.354,5.828 37.750 C 5.790 37.868,5.780 37.869,5.665 37.766 C 5.484 37.601,5.300 37.694,5.000 38.100 C 4.662 38.557,4.623 38.578,4.430 38.397 C 4.296 38.271,4.254 38.261,4.167 38.333 C 4.086 38.400,4.025 38.402,3.895 38.343 C 3.781 38.291,3.123 38.267,1.864 38.267 L 0.000 38.267 0.000 85.800 L 0.000 133.333 200.000 133.333 L 400.000 133.333 400.000 85.800 L 400.000 38.267 398.043 38.267 L 396.086 38.267 395.393 38.556 C 391.566 40.156,383.493 42.361,377.533 43.433 C 377.312 43.473,377.286 43.457,377.082 43.169 C 376.828 42.808,376.629 42.707,376.426 42.835 C 376.295 42.918,376.269 42.898,376.035 42.535 C 375.896 42.322,375.720 42.119,375.642 42.085 C 374.825 41.730,374.728 41.655,374.444 41.158 C 374.194 40.720,374.146 40.671,373.960 40.669 C 373.847 40.668,373.589 40.610,373.387 40.540 C 373.155 40.461,372.985 40.435,372.926 40.473 C 372.652 40.646,372.199 40.505,371.906 40.154 C 371.725 39.938,371.333 39.760,371.172 39.822 C 371.123 39.841,370.982 39.750,370.858 39.620 C 370.609 39.359,370.260 39.181,370.110 39.239 C 370.049 39.262,369.995 39.224,369.968 39.138 C 369.837 38.726,369.467 38.495,369.318 38.733 C 369.202 38.920,369.151 38.900,369.098 38.650 C 368.979 38.093,368.743 37.750,368.254 37.425 C 367.752 37.091,367.599 36.854,367.304 35.953 C 367.199 35.631,367.178 35.608,367.012 35.639 C 366.858 35.668,366.789 35.618,366.504 35.270 C 366.178 34.871,366.174 34.868,366.038 34.992 C 365.704 35.295,365.615 35.297,365.307 35.013 C 365.150 34.869,364.946 34.701,364.854 34.641 C 364.762 34.580,364.481 34.246,364.231 33.899 C 363.748 33.228,363.713 33.200,363.603 33.383 C 363.537 33.494,363.530 33.494,363.463 33.383 C 363.353 33.200,363.319 33.228,362.836 33.899 C 362.585 34.246,362.305 34.580,362.213 34.641 C 362.120 34.701,361.917 34.869,361.760 35.013 C 361.452 35.297,361.363 35.295,361.029 34.992 C 360.893 34.868,360.888 34.871,360.562 35.270 C 360.278 35.618,360.209 35.668,360.055 35.639 C 359.889 35.608,359.867 35.631,359.762 35.953 C 359.468 36.854,359.315 37.091,358.813 37.425 C 358.324 37.750,358.088 38.093,357.969 38.650 C 357.916 38.900,357.865 38.920,357.749 38.733 C 357.600 38.495,357.229 38.726,357.099 39.138 C 357.071 39.224,357.018 39.262,356.957 39.239 C 356.806 39.181,356.457 39.359,356.209 39.620 C 356.085 39.750,355.944 39.841,355.895 39.822 C 355.734 39.760,355.341 39.938,355.161 40.154 C 354.868 40.505,354.415 40.646,354.140 40.473 C 354.082 40.435,353.911 40.461,353.680 40.540 C 353.478 40.610,353.220 40.668,353.106 40.669 C 352.921 40.671,352.872 40.720,352.622 41.158 C 352.338 41.655,352.242 41.730,351.425 42.085 C 351.347 42.119,351.170 42.322,351.032 42.535 C 350.797 42.898,350.771 42.918,350.640 42.835 C 350.434 42.705,350.242 42.808,349.961 43.199 C 349.649 43.633,349.521 43.704,349.365 43.531 C 349.210 43.360,349.024 43.364,348.929 43.542 C 348.859 43.673,348.842 43.656,348.704 43.318 C 348.514 42.850,348.277 42.467,348.178 42.467 C 347.803 42.467,347.230 41.782,346.961 41.013 C 346.848 40.688,346.824 40.663,346.669 40.702 C 346.524 40.739,346.451 40.689,346.158 40.360 L 345.816 39.975 345.603 40.154 C 345.294 40.414,344.908 40.407,344.770 40.139 C 344.628 39.866,344.351 39.667,344.108 39.664 C 343.930 39.662,343.842 39.589,343.500 39.159 C 343.280 38.882,343.067 38.628,343.027 38.595 C 342.978 38.554,342.812 38.710,342.527 39.068 C 342.171 39.514,342.075 39.597,341.950 39.567 C 341.865 39.546,341.725 39.579,341.629 39.642 C 341.460 39.753,341.456 39.751,341.079 39.386 C 340.564 38.885,339.986 38.430,339.648 38.257 C 339.493 38.178,339.327 38.058,339.279 37.989 C 339.187 37.859,338.600 37.534,338.452 37.532 C 338.405 37.531,338.142 37.366,337.868 37.165 C 337.266 36.724,337.348 36.727,336.800 37.133 C 336.432 37.406,336.301 37.467,336.077 37.467 C 335.869 37.467,335.751 37.514,335.577 37.667 C 335.317 37.895,335.158 37.912,334.731 37.759 L 334.429 37.651 334.102 37.859 C 333.921 37.973,333.691 38.067,333.590 38.067 C 333.449 38.067,333.361 38.132,333.211 38.350 C 332.943 38.738,332.828 38.827,332.375 38.994 C 331.883 39.175,331.763 39.259,331.548 39.575 C 331.453 39.714,331.364 39.792,331.349 39.747 C 331.287 39.562,330.889 39.659,330.656 39.917 C 330.296 40.315,329.931 40.305,329.125 39.873 L 328.504 39.540 327.802 39.893 C 327.416 40.087,326.882 40.316,326.615 40.401 C 326.348 40.486,326.063 40.620,325.981 40.699 C 325.900 40.777,325.683 40.896,325.500 40.962 C 325.096 41.107,324.430 41.488,323.659 42.014 L 323.085 42.406 322.844 42.292 C 322.451 42.104,322.415 42.129,319.312 44.759 C 317.707 46.119,317.095 46.600,316.970 46.600 C 316.813 46.600,316.800 46.623,316.800 46.900 C 316.800 47.271,316.775 47.271,316.281 46.900 C 315.746 46.498,315.584 46.502,315.167 46.927 C 314.908 47.190,314.802 47.253,314.621 47.253 C 314.347 47.253,314.115 47.397,313.957 47.665 C 313.780 47.965,313.315 48.130,313.061 47.984 C 312.886 47.884,312.850 47.886,312.536 48.005 C 312.350 48.076,312.094 48.133,311.966 48.133 C 311.830 48.133,311.733 48.166,311.733 48.213 C 311.733 48.256,311.614 48.493,311.468 48.739 L 311.202 49.187 310.936 49.108 C 310.601 49.009,310.404 48.833,310.683 48.882 C 310.784 48.900,310.867 48.894,310.867 48.868 C 310.867 48.842,310.926 48.752,310.999 48.668 C 311.163 48.479,311.122 48.403,310.877 48.442 C 310.750 48.462,310.656 48.433,310.593 48.357 C 310.511 48.255,310.514 48.247,310.616 48.285 C 310.764 48.341,311.110 48.057,311.037 47.940 C 311.009 47.895,310.945 47.874,310.893 47.893 C 310.842 47.913,310.800 47.897,310.800 47.857 C 310.800 47.818,310.753 47.804,310.695 47.826 C 310.637 47.848,310.545 47.821,310.490 47.766 C 310.386 47.662,310.429 47.638,310.677 47.662 C 310.849 47.679,310.892 47.539,310.760 47.393 C 310.623 47.241,310.583 47.069,310.662 46.969 C 310.692 46.931,310.708 46.825,310.697 46.733 C 310.687 46.642,310.675 46.544,310.672 46.517 C 310.658 46.392,310.539 46.487,310.462 46.683 L 310.377 46.900 310.350 46.707 C 310.335 46.601,310.355 46.495,310.394 46.471 C 310.433 46.446,310.485 46.323,310.510 46.197 C 310.553 45.980,310.549 45.972,310.434 46.067 C 310.320 46.160,310.314 46.155,310.349 46.000 C 310.370 45.908,310.365 45.775,310.338 45.703 C 310.284 45.561,310.181 45.906,310.224 46.083 C 310.236 46.129,310.232 46.144,310.217 46.117 C 310.136 45.972,310.074 46.103,310.096 46.369 C 310.119 46.640,310.109 46.668,309.998 46.633 C 309.890 46.598,309.881 46.617,309.927 46.780 C 309.956 46.883,309.968 46.999,309.955 47.038 C 309.941 47.077,310.006 47.150,310.098 47.199 C 310.277 47.295,310.322 47.400,310.183 47.400 C 310.137 47.399,310.020 47.357,309.921 47.306 C 309.763 47.223,309.738 47.225,309.700 47.323 C 309.648 47.460,309.959 47.745,310.102 47.690 C 310.169 47.664,310.190 47.683,310.165 47.748 C 310.144 47.802,310.041 47.844,309.930 47.844 C 309.592 47.844,309.588 48.069,309.923 48.239 C 310.001 48.279,310.046 48.331,310.022 48.355 C 309.998 48.379,309.940 48.366,309.891 48.326 C 309.826 48.272,309.776 48.282,309.695 48.362 C 309.516 48.541,309.396 48.381,309.445 48.027 C 309.489 47.700,309.412 47.644,309.245 47.883 C 309.154 48.014,309.140 48.018,309.137 47.912 C 309.135 47.845,309.178 47.745,309.233 47.690 C 309.366 47.558,309.361 47.442,309.225 47.494 C 309.144 47.525,309.125 47.504,309.150 47.408 C 309.169 47.339,309.159 47.242,309.130 47.194 C 309.092 47.132,309.063 47.159,309.031 47.287 C 309.006 47.386,308.959 47.467,308.926 47.467 C 308.893 47.467,308.867 47.571,308.867 47.698 C 308.867 47.867,308.842 47.920,308.775 47.894 C 308.607 47.829,308.733 48.169,308.922 48.287 L 309.100 48.399 308.878 48.385 C 308.756 48.377,308.642 48.347,308.624 48.318 C 308.584 48.253,308.467 48.317,308.467 48.402 C 308.467 48.494,308.819 48.653,308.933 48.613 C 309.015 48.585,309.018 48.597,308.951 48.678 C 308.899 48.741,308.796 48.766,308.668 48.748 C 308.471 48.719,308.360 48.887,308.537 48.946 C 308.576 48.959,308.588 49.021,308.563 49.084 C 308.539 49.147,308.495 49.184,308.464 49.165 C 308.318 49.075,308.351 49.275,308.498 49.371 C 308.591 49.432,308.667 49.524,308.667 49.574 C 308.667 49.690,308.355 49.698,308.315 49.583 C 308.294 49.523,308.246 49.536,308.143 49.627 C 307.974 49.777,307.943 49.647,308.108 49.482 C 308.208 49.383,308.208 49.371,308.103 49.334 C 308.041 49.313,307.992 49.273,307.995 49.247 C 308.008 49.118,307.990 49.119,307.867 49.251 C 307.793 49.330,307.733 49.455,307.733 49.528 C 307.733 49.624,307.703 49.651,307.626 49.621 C 307.538 49.587,307.527 49.609,307.569 49.739 C 307.610 49.870,307.602 49.886,307.526 49.827 C 306.928 49.366,306.867 49.304,306.904 49.188 C 306.936 49.087,306.905 49.067,306.716 49.067 C 306.400 49.067,306.350 48.984,306.613 48.896 C 306.827 48.824,306.919 48.642,306.750 48.625 C 306.704 48.620,306.644 48.609,306.617 48.601 C 306.589 48.592,306.518 48.589,306.458 48.595 C 306.399 48.601,306.333 48.561,306.312 48.507 C 306.286 48.440,306.311 48.416,306.393 48.432 C 306.603 48.473,306.705 48.362,306.576 48.233 C 306.487 48.144,306.473 48.052,306.507 47.793 C 306.553 47.445,306.396 47.364,306.295 47.684 C 306.253 47.814,306.247 47.815,306.183 47.700 C 306.131 47.608,306.141 47.559,306.224 47.499 C 306.284 47.455,306.333 47.351,306.333 47.268 C 306.333 47.135,306.320 47.128,306.222 47.209 C 306.122 47.291,306.119 47.286,306.189 47.154 C 306.288 46.968,306.287 46.955,306.163 46.908 C 306.104 46.885,306.077 46.896,306.100 46.934 C 306.123 46.970,306.112 47.000,306.077 47.000 C 306.041 47.000,306.028 47.060,306.048 47.134 C 306.073 47.231,306.056 47.259,305.988 47.232 C 305.913 47.204,305.899 47.249,305.922 47.442 C 305.946 47.654,305.934 47.681,305.834 47.643 C 305.672 47.580,305.758 47.928,305.940 48.069 C 306.111 48.202,306.035 48.277,305.815 48.193 C 305.721 48.157,305.600 48.145,305.547 48.165 C 305.398 48.222,305.772 48.490,305.940 48.446 C 306.051 48.417,306.060 48.427,305.995 48.506 C 305.951 48.559,305.882 48.598,305.841 48.593 C 305.566 48.561,305.398 48.733,305.617 48.823 C 305.673 48.847,305.647 48.904,305.535 49.002 L 305.369 49.146 305.551 49.279 C 305.779 49.444,305.788 49.600,305.571 49.600 C 305.481 49.600,305.389 49.630,305.367 49.667 C 305.344 49.703,305.239 49.733,305.133 49.733 C 305.028 49.733,304.923 49.703,304.900 49.667 C 304.877 49.629,304.930 49.600,305.021 49.600 C 305.186 49.600,305.384 49.437,305.287 49.382 C 305.257 49.365,305.149 49.356,305.046 49.361 C 304.943 49.367,304.823 49.328,304.780 49.274 C 304.713 49.193,304.724 49.183,304.843 49.214 C 305.053 49.268,305.204 49.153,305.045 49.059 C 304.947 49.002,304.932 48.938,304.967 48.734 C 305.015 48.447,304.913 48.322,304.801 48.531 C 304.761 48.606,304.700 48.667,304.664 48.667 C 304.561 48.667,304.590 48.466,304.700 48.424 C 304.755 48.403,304.800 48.325,304.800 48.251 C 304.800 48.137,304.784 48.130,304.696 48.203 C 304.605 48.279,304.597 48.268,304.635 48.119 C 304.659 48.022,304.646 47.929,304.605 47.903 C 304.542 47.864,304.501 47.993,304.525 48.150 C 304.530 48.178,304.494 48.200,304.445 48.200 C 304.384 48.200,304.366 48.264,304.386 48.401 C 304.411 48.570,304.397 48.595,304.300 48.557 C 304.140 48.496,304.230 48.779,304.425 48.950 L 304.567 49.074 304.417 49.037 C 304.334 49.017,304.209 48.984,304.139 48.964 C 304.069 48.944,303.993 48.958,303.970 48.994 C 303.921 49.075,304.310 49.289,304.402 49.232 C 304.438 49.210,304.467 49.224,304.467 49.263 C 304.467 49.302,304.362 49.333,304.233 49.333 C 304.007 49.333,303.928 49.414,304.070 49.502 C 304.157 49.556,304.024 49.733,303.897 49.733 C 303.850 49.733,303.799 49.769,303.785 49.812 C 303.770 49.856,303.722 49.868,303.675 49.839 C 303.612 49.800,303.622 49.765,303.713 49.695 C 303.793 49.634,303.809 49.585,303.762 49.551 C 303.722 49.523,303.669 49.442,303.643 49.372 C 303.597 49.248,303.592 49.249,303.494 49.388 C 303.438 49.468,303.357 49.532,303.313 49.531 C 303.269 49.530,303.285 49.490,303.350 49.441 C 303.466 49.352,303.520 49.093,303.408 49.162 C 303.375 49.182,303.328 49.131,303.304 49.049 L 303.259 48.900 303.186 49.050 C 303.146 49.132,303.092 49.200,303.066 49.200 C 303.040 49.200,303.034 49.280,303.052 49.378 C 303.080 49.522,303.066 49.547,302.977 49.513 C 302.823 49.454,302.829 49.703,302.983 49.801 C 303.079 49.862,303.061 49.869,302.886 49.840 C 302.625 49.797,302.541 49.897,302.746 50.007 L 302.895 50.087 302.740 50.144 C 302.612 50.191,302.599 50.219,302.667 50.300 C 302.733 50.379,302.728 50.406,302.641 50.440 C 302.494 50.496,302.506 50.582,302.667 50.633 C 302.740 50.657,302.800 50.722,302.800 50.778 C 302.800 50.841,302.762 50.866,302.702 50.843 C 302.648 50.823,302.562 50.848,302.510 50.900 C 302.388 51.022,302.319 50.951,302.405 50.791 C 302.462 50.685,302.447 50.667,302.302 50.667 C 302.092 50.667,302.092 50.639,302.300 50.414 C 302.488 50.212,302.516 50.067,302.367 50.067 C 302.312 50.067,302.267 50.041,302.267 50.009 C 302.267 49.978,302.195 49.965,302.108 49.982 C 302.020 49.999,301.931 49.983,301.909 49.948 C 301.887 49.912,301.953 49.866,302.055 49.846 C 302.167 49.823,302.272 49.741,302.318 49.640 C 302.406 49.447,302.399 49.440,302.017 49.338 C 301.861 49.296,301.733 49.229,301.733 49.190 C 301.733 49.149,301.795 49.134,301.876 49.155 C 301.972 49.180,302.057 49.145,302.140 49.046 C 302.320 48.831,302.298 48.739,302.072 48.768 C 301.948 48.783,301.844 48.753,301.788 48.684 C 301.712 48.590,301.716 48.581,301.812 48.617 C 301.944 48.666,302.288 48.422,302.227 48.323 C 302.205 48.287,302.146 48.273,302.095 48.293 C 302.045 48.312,301.987 48.300,301.967 48.267 C 301.946 48.233,301.890 48.221,301.842 48.239 C 301.794 48.258,301.716 48.226,301.669 48.170 C 301.595 48.081,301.611 48.067,301.788 48.067 C 302.047 48.067,302.099 47.984,301.934 47.834 C 301.822 47.733,301.810 47.660,301.845 47.323 C 301.889 46.898,301.734 46.800,301.632 47.188 C 301.588 47.353,301.581 47.357,301.530 47.233 C 301.451 47.039,301.456 47.000,301.559 47.000 C 301.659 47.000,301.729 46.819,301.683 46.681 C 301.659 46.610,301.634 46.610,301.548 46.681 C 301.437 46.770,301.437 46.770,301.570 46.442 C 301.591 46.392,301.559 46.332,301.500 46.309 C 301.441 46.287,301.410 46.296,301.431 46.329 C 301.452 46.363,301.440 46.409,301.404 46.431 C 301.368 46.453,301.356 46.515,301.377 46.569 C 301.399 46.626,301.376 46.667,301.322 46.667 C 301.255 46.667,301.237 46.739,301.255 46.934 C 301.277 47.165,301.265 47.195,301.166 47.157 C 301.073 47.121,301.065 47.515,301.158 47.572 C 301.163 47.575,301.242 47.628,301.333 47.691 L 301.500 47.804 301.278 47.787 C 301.156 47.778,301.041 47.746,301.022 47.716 C 301.004 47.685,300.946 47.696,300.894 47.739 C 300.752 47.856,301.088 48.157,301.289 48.093 C 301.412 48.054,301.420 48.062,301.348 48.149 C 301.302 48.204,301.188 48.250,301.096 48.250 C 300.872 48.250,300.822 48.312,300.919 48.468 C 300.986 48.575,300.975 48.618,300.853 48.731 L 300.708 48.867 300.920 49.074 C 301.153 49.302,301.146 49.400,300.896 49.400 C 300.707 49.400,300.687 49.505,300.844 49.678 C 300.947 49.793,300.945 49.800,300.810 49.800 C 300.731 49.800,300.667 49.825,300.667 49.856 C 300.667 49.952,300.908 50.136,300.965 50.083 C 300.994 50.056,301.004 50.078,300.988 50.133 C 300.971 50.188,300.877 50.272,300.778 50.320 C 300.463 50.474,300.644 50.770,301.006 50.692 C 301.154 50.660,301.157 50.664,301.050 50.752 C 300.986 50.805,300.933 50.881,300.933 50.922 C 300.933 50.965,300.812 50.993,300.635 50.989 C 300.470 50.986,300.352 50.956,300.373 50.924 C 300.393 50.891,300.431 50.878,300.458 50.895 C 300.485 50.911,300.550 50.896,300.603 50.861 C 300.686 50.807,300.683 50.788,300.585 50.730 C 300.501 50.680,300.481 50.610,300.510 50.465 C 300.556 50.238,300.437 50.193,300.293 50.383 C 300.214 50.487,300.204 50.488,300.202 50.391 C 300.201 50.332,300.245 50.246,300.299 50.201 C 300.409 50.109,300.367 49.971,300.251 50.043 C 300.204 50.072,300.192 50.049,300.219 49.980 C 300.242 49.920,300.230 49.852,300.193 49.829 C 300.155 49.806,300.108 49.849,300.088 49.926 C 300.068 50.002,300.025 50.049,299.992 50.029 C 299.960 50.009,299.933 50.083,299.933 50.194 C 299.933 50.341,299.908 50.386,299.838 50.359 C 299.767 50.332,299.753 50.361,299.782 50.473 C 299.814 50.595,299.800 50.614,299.705 50.578 C 299.641 50.553,299.547 50.533,299.495 50.533 C 299.443 50.533,299.400 50.504,299.400 50.469 C 299.400 50.433,299.442 50.420,299.493 50.440 C 299.627 50.491,299.683 50.363,299.569 50.268 C 299.505 50.216,299.486 50.122,299.511 49.994 C 299.551 49.794,299.381 49.698,299.315 49.883 C 299.298 49.929,299.262 49.946,299.235 49.920 C 299.207 49.894,299.233 49.824,299.292 49.765 C 299.429 49.628,299.432 49.507,299.297 49.559 C 299.237 49.582,299.210 49.570,299.234 49.533 C 299.313 49.404,299.200 49.337,299.020 49.405 C 298.906 49.449,298.822 49.449,298.780 49.406 C 298.737 49.363,298.774 49.326,298.888 49.297 C 298.983 49.273,299.096 49.212,299.139 49.160 C 299.218 49.065,299.215 49.064,298.785 49.037 C 298.518 49.020,298.500 48.867,298.765 48.867 L 299.023 48.867 298.880 48.714 C 298.766 48.593,298.745 48.511,298.777 48.314 C 298.823 48.032,298.737 47.989,298.578 48.217 L 298.474 48.367 298.470 48.222 C 298.468 48.143,298.493 48.068,298.525 48.056 C 298.556 48.043,298.605 47.961,298.632 47.873 C 298.674 47.739,298.663 47.720,298.567 47.757 C 298.487 47.788,298.462 47.774,298.486 47.711 C 298.505 47.662,298.497 47.582,298.468 47.535 C 298.429 47.472,298.403 47.487,298.370 47.591 C 298.345 47.668,298.343 47.762,298.366 47.799 C 298.390 47.837,298.363 47.848,298.303 47.825 C 298.224 47.795,298.200 47.833,298.200 47.993 C 298.200 48.123,298.166 48.200,298.109 48.200 C 297.949 48.200,298.065 48.506,298.256 48.588 C 298.415 48.656,298.400 48.661,298.117 48.633 C 297.938 48.616,297.800 48.630,297.800 48.666 C 297.800 48.782,298.109 48.938,298.241 48.889 C 298.350 48.848,298.355 48.856,298.278 48.950 C 298.230 49.010,298.147 49.042,298.095 49.022 C 297.898 48.947,297.768 49.054,297.891 49.190 C 297.994 49.304,297.990 49.317,297.821 49.393 L 297.642 49.475 297.832 49.627 C 298.017 49.774,298.021 49.963,297.838 49.893 C 297.689 49.835,297.633 50.011,297.769 50.110 C 297.879 50.190,297.858 50.230,297.717 50.208 C 297.634 50.195,297.660 50.282,297.777 50.411 C 297.877 50.521,297.877 50.533,297.781 50.533 C 297.722 50.533,297.660 50.510,297.642 50.481 C 297.625 50.453,297.511 50.422,297.389 50.412 C 297.132 50.393,296.959 50.267,297.189 50.267 C 297.272 50.267,297.403 50.207,297.482 50.133 C 297.638 49.988,297.597 49.967,297.217 49.997 C 297.134 50.004,297.067 49.977,297.067 49.938 C 297.067 49.899,297.138 49.867,297.225 49.867 C 297.350 49.867,297.624 49.680,297.525 49.662 C 297.511 49.660,297.396 49.644,297.269 49.628 C 297.142 49.611,297.007 49.564,296.969 49.523 C 296.919 49.469,296.940 49.458,297.043 49.483 C 297.288 49.542,297.368 49.435,297.203 49.270 C 297.095 49.161,297.076 49.102,297.130 49.037 C 297.208 48.943,297.158 48.733,297.057 48.733 C 297.024 48.733,296.979 48.778,296.957 48.833 C 296.913 48.948,296.800 48.969,296.800 48.862 C 296.800 48.823,296.845 48.745,296.900 48.690 C 297.047 48.544,297.038 48.352,296.890 48.475 C 296.794 48.555,296.786 48.550,296.822 48.433 C 296.845 48.360,296.835 48.255,296.799 48.200 C 296.736 48.101,296.707 48.183,296.715 48.445 C 296.716 48.488,296.676 48.507,296.625 48.488 C 296.554 48.460,296.544 48.501,296.577 48.671 C 296.615 48.856,296.604 48.883,296.511 48.847 C 296.334 48.779,296.378 48.974,296.583 49.164 C 296.777 49.344,296.724 49.377,296.427 49.264 C 296.312 49.220,296.222 49.218,296.181 49.259 C 296.101 49.339,296.506 49.558,296.612 49.492 C 296.658 49.464,296.669 49.476,296.640 49.523 C 296.614 49.565,296.489 49.600,296.363 49.600 C 296.129 49.600,296.052 49.706,296.235 49.777 C 296.363 49.826,296.240 50.000,296.078 50.000 C 296.009 50.000,296.051 50.067,296.198 50.189 C 296.332 50.301,296.395 50.395,296.353 50.421 C 296.256 50.481,295.867 50.339,295.867 50.243 C 295.867 50.200,295.807 50.128,295.735 50.083 C 295.633 50.020,295.612 49.955,295.643 49.800 C 295.688 49.575,295.634 49.549,295.455 49.710 C 295.298 49.853,295.288 49.702,295.445 49.545 C 295.547 49.443,295.548 49.432,295.449 49.412 C 295.389 49.401,295.356 49.352,295.375 49.303 C 295.394 49.254,295.379 49.195,295.343 49.172 C 295.306 49.150,295.257 49.192,295.234 49.266 C 295.210 49.340,295.160 49.400,295.122 49.400 C 295.084 49.400,295.071 49.449,295.094 49.508 C 295.127 49.594,295.104 49.608,294.984 49.576 C 294.901 49.553,294.771 49.535,294.696 49.534 C 294.620 49.534,294.496 49.475,294.420 49.404 C 294.338 49.328,294.227 49.289,294.148 49.310 C 294.075 49.329,293.995 49.313,293.971 49.274 C 293.947 49.235,294.003 49.185,294.100 49.161 C 294.300 49.111,294.526 48.748,294.386 48.704 C 294.339 48.689,294.188 48.642,294.051 48.600 C 293.755 48.509,293.626 48.364,293.885 48.413 C 294.018 48.439,294.089 48.403,294.198 48.255 C 294.370 48.022,294.326 47.929,294.053 47.950 C 293.774 47.973,293.755 47.856,294.018 47.733 C 294.217 47.641,294.319 47.435,294.167 47.432 C 294.130 47.432,294.065 47.409,294.023 47.382 C 293.980 47.355,293.902 47.350,293.848 47.370 C 293.794 47.391,293.733 47.361,293.711 47.304 C 293.680 47.224,293.717 47.200,293.869 47.200 C 294.082 47.200,294.134 47.072,293.974 46.939 C 293.868 46.851,293.794 46.545,293.867 46.500 C 293.963 46.440,293.917 46.099,293.798 45.986 C 293.725 45.917,293.692 45.818,293.713 45.736 C 293.751 45.590,293.634 45.544,293.577 45.683 C 293.552 45.747,293.543 45.746,293.539 45.679 C 293.536 45.631,293.564 45.533,293.602 45.462 C 293.650 45.373,293.650 45.333,293.602 45.333 C 293.564 45.333,293.530 45.281,293.527 45.217 C 293.522 45.140,293.502 45.157,293.468 45.267 C 293.440 45.358,293.428 45.508,293.442 45.600 C 293.456 45.692,293.450 45.729,293.428 45.683 C 293.340 45.495,293.288 45.621,293.320 45.950 C 293.350 46.268,293.344 46.292,293.244 46.209 C 293.146 46.128,293.137 46.146,293.151 46.390 C 293.163 46.593,293.204 46.681,293.317 46.742 C 293.603 46.896,293.486 46.988,293.160 46.864 C 292.878 46.757,292.803 46.892,293.028 47.101 C 293.161 47.224,293.252 47.259,293.356 47.226 C 293.477 47.188,293.486 47.196,293.416 47.280 C 293.371 47.335,293.241 47.382,293.127 47.386 C 292.854 47.393,292.820 47.438,292.966 47.599 C 293.083 47.729,293.082 47.737,292.910 47.897 L 292.732 48.061 292.936 48.270 C 293.159 48.497,293.165 48.629,292.954 48.640 C 292.879 48.644,292.784 48.669,292.742 48.694 C 292.701 48.720,292.493 48.635,292.282 48.504 C 292.070 48.373,291.818 48.267,291.721 48.267 C 291.480 48.267,291.175 47.898,290.620 46.937 C 289.740 45.410,288.867 44.425,288.867 44.958 C 288.867 45.138,288.595 45.400,288.408 45.400 C 288.308 45.400,288.198 45.426,288.163 45.458 C 287.684 45.893,286.915 45.252,286.337 43.933 C 285.540 42.119,285.161 41.552,284.549 41.261 C 284.375 41.178,284.107 40.996,283.951 40.856 C 283.601 40.538,283.603 40.537,283.144 40.894 C 282.627 41.296,281.487 41.913,281.103 41.999 C 280.620 42.108,280.436 42.230,280.100 42.667 C 279.732 43.145,278.990 43.545,277.933 43.835 C 277.585 43.930,277.053 44.095,276.752 44.201 L 276.203 44.394 276.102 44.249 C 276.046 44.169,276.000 44.071,276.000 44.032 C 276.000 43.992,275.835 43.711,275.633 43.406 C 275.215 42.774,275.189 42.606,275.371 41.733 C 275.506 41.092,275.456 40.719,275.213 40.542 C 275.044 40.418,275.034 40.380,275.026 39.822 C 275.015 39.081,274.827 38.587,274.268 37.833 C 274.051 37.540,273.699 37.035,273.486 36.712 C 272.029 34.494,271.810 34.393,270.998 35.569 C 270.465 36.341,270.398 36.399,270.093 36.352 C 269.718 36.295,269.496 36.557,268.233 38.551 C 267.595 39.559,267.225 39.895,266.811 39.844 C 266.429 39.796,266.266 39.878,265.957 40.272 C 264.597 42.007,262.501 43.173,261.358 42.831 C 261.079 42.748,260.825 43.088,260.465 44.028 C 260.048 45.117,259.914 45.308,259.117 45.939 C 258.238 46.635,257.429 46.748,257.285 46.195 C 257.267 46.127,257.128 45.998,256.975 45.909 C 256.283 45.503,255.553 44.411,254.204 41.767 C 253.163 39.727,253.089 39.684,252.803 40.953 C 252.645 41.655,252.525 41.852,252.133 42.058 C 251.846 42.209,251.303 43.188,251.200 43.741 C 251.084 44.362,250.908 44.629,250.767 44.400 C 250.694 44.282,250.483 44.329,250.268 44.509 L 250.059 44.685 249.843 44.476 C 249.568 44.209,249.346 44.208,248.867 44.470 C 248.665 44.580,248.125 44.851,247.667 45.071 C 247.208 45.292,246.323 45.727,245.700 46.038 C 244.526 46.624,244.426 46.656,244.190 46.517 C 244.077 46.450,244.043 46.450,244.019 46.517 C 244.002 46.563,243.953 46.600,243.910 46.600 C 243.866 46.600,243.726 46.670,243.599 46.755 C 243.000 47.153,242.181 47.368,241.685 47.257 C 241.208 47.151,240.079 46.401,239.352 45.708 C 239.067 45.436,238.683 45.095,238.500 44.950 C 238.317 44.805,238.107 44.619,238.035 44.537 C 237.962 44.456,237.752 44.280,237.568 44.147 C 237.384 44.015,237.068 43.757,236.867 43.576 C 236.340 43.101,236.149 43.001,235.776 43.000 C 235.352 43.000,234.658 42.362,234.198 41.551 C 233.705 40.680,233.563 40.533,233.211 40.533 C 233.002 40.533,232.805 40.474,232.564 40.338 C 232.374 40.230,232.041 40.091,231.826 40.029 C 230.846 39.746,229.742 39.059,228.852 38.177 C 227.694 37.029,225.395 35.597,223.667 34.946 C 223.282 34.801,222.649 34.532,222.261 34.349 C 221.541 34.008,221.256 33.901,220.121 33.539 C 219.246 33.260,219.260 33.257,218.938 33.767 C 218.788 34.005,218.635 34.204,218.599 34.208 C 218.563 34.213,218.503 34.224,218.467 34.233 C 218.430 34.242,218.376 34.254,218.347 34.258 C 218.261 34.272,218.133 34.688,218.133 34.952 C 218.133 35.135,218.097 35.215,217.985 35.275 C 217.904 35.318,217.550 35.627,217.200 35.960 C 215.466 37.612,215.528 37.576,215.089 37.165 C 214.438 36.555,214.042 36.716,213.166 37.946 C 211.908 39.711,210.006 41.537,209.534 41.433 C 209.342 41.391,209.325 41.403,209.074 41.731 C 209.005 41.822,208.758 41.972,208.524 42.065 C 208.135 42.219,208.075 42.272,207.792 42.701 C 207.556 43.059,207.354 43.262,206.931 43.567 C 206.627 43.787,206.185 44.112,205.948 44.291 C 205.430 44.682,205.428 44.681,204.729 43.948 L 204.253 43.450 203.925 43.489 C 203.379 43.553,203.260 43.646,202.967 44.234 C 202.232 45.706,200.581 47.733,200.117 47.733 C 200.048 47.733,199.757 47.969,199.469 48.256 C 198.483 49.242,197.996 49.529,197.696 49.302 C 197.547 49.190,197.228 49.168,197.167 49.267 C 197.088 49.394,196.708 49.332,196.356 49.133 C 195.546 48.676,194.749 49.082,194.208 50.227 L 194.010 50.647 193.388 50.851 C 192.660 51.091,192.133 51.185,192.133 51.074 C 192.133 51.033,192.042 51.000,191.930 51.000 C 191.437 51.000,190.867 50.216,190.867 49.539 C 190.867 49.068,190.779 48.842,190.556 48.741 C 190.466 48.700,190.362 48.576,190.323 48.466 C 190.282 48.348,190.207 48.267,190.138 48.267 C 190.019 48.267,189.970 48.191,189.741 47.650 C 189.668 47.476,189.577 47.333,189.539 47.333 C 189.501 47.333,189.424 47.243,189.367 47.133 C 189.310 47.023,189.220 46.933,189.167 46.933 C 189.040 46.933,188.913 46.686,188.956 46.522 C 188.978 46.438,188.939 46.350,188.850 46.278 C 188.525 46.019,188.415 45.876,188.298 45.564 C 188.230 45.382,188.106 45.129,188.021 45.001 C 187.936 44.874,187.867 44.733,187.867 44.689 C 187.867 44.646,187.797 44.555,187.712 44.488 C 187.502 44.323,187.134 43.804,187.133 43.673 C 187.131 43.412,186.360 43.115,185.817 43.166 L 185.317 43.213 184.975 42.851 C 184.756 42.619,184.504 42.232,184.273 41.774 C 183.874 40.981,183.781 40.900,183.194 40.832 C 182.406 40.741,181.867 40.423,181.867 40.051 C 181.867 39.999,181.714 39.793,181.528 39.595 C 180.846 38.867,180.824 38.835,180.731 38.413 C 180.675 38.161,180.605 38.000,180.551 38.000 C 180.502 38.000,180.445 37.955,180.425 37.901 C 180.309 37.600,179.874 37.236,179.816 37.393 C 179.763 37.535,179.752 37.526,179.667 37.268 C 179.595 37.050,179.517 36.961,179.304 36.854 C 178.919 36.661,178.724 36.467,178.771 36.321 C 178.794 36.246,178.775 36.199,178.721 36.198 C 178.673 36.197,178.545 36.106,178.437 35.996 C 178.103 35.656,177.701 35.491,177.447 35.590 C 177.329 35.635,177.023 35.691,176.767 35.712 C 176.510 35.734,176.186 35.809,176.047 35.879 C 175.796 36.005,175.793 36.005,175.615 35.864 L 175.436 35.723 175.368 36.045 C 175.294 36.395,175.101 36.494,174.803 36.335 C 174.706 36.283,174.667 36.283,174.667 36.334 C 174.667 36.441,174.097 37.000,173.987 37.000 C 173.809 37.000,173.733 37.161,173.733 37.542 C 173.733 37.866,173.713 37.931,173.599 37.967 C 173.526 37.990,173.420 38.097,173.364 38.205 C 173.309 38.312,173.222 38.400,173.171 38.400 C 173.111 38.400,173.069 38.507,173.049 38.717 C 172.966 39.563,172.713 40.568,172.560 40.653 C 172.151 40.882,170.998 40.195,170.623 39.500 C 170.280 38.865,169.824 38.445,169.279 38.261 C 169.047 38.183,168.841 38.077,168.821 38.026 C 168.689 37.682,168.021 38.278,167.624 39.094 C 167.401 39.552,167.331 39.637,167.094 39.742 C 166.868 39.843,166.808 39.911,166.738 40.148 C 166.625 40.532,166.469 40.872,166.331 41.033 C 166.269 41.107,166.199 41.308,166.177 41.480 C 166.155 41.652,166.061 41.951,165.968 42.143 C 165.876 42.335,165.800 42.592,165.800 42.715 C 165.800 42.856,165.762 42.952,165.695 42.978 C 165.629 43.003,165.602 43.068,165.623 43.148 C 165.643 43.223,165.579 43.401,165.469 43.574 C 165.365 43.737,165.260 43.982,165.235 44.119 C 165.117 44.753,164.865 44.921,164.222 44.793 C 163.836 44.716,163.768 44.719,163.610 44.818 C 163.238 45.052,163.140 45.083,162.907 45.039 C 162.611 44.983,162.300 44.726,162.132 44.397 C 162.061 44.258,161.914 44.081,161.806 44.004 C 161.698 43.927,161.545 43.760,161.466 43.632 C 161.339 43.426,161.291 43.400,161.040 43.400 C 160.812 43.400,160.721 43.361,160.562 43.195 C 160.251 42.869,159.566 43.190,159.434 43.725 C 159.410 43.821,159.303 43.981,159.195 44.080 C 158.990 44.268,158.947 44.531,158.990 45.334 C 158.999 45.500,158.960 45.746,158.903 45.882 C 158.844 46.025,158.800 46.325,158.800 46.594 C 158.800 46.850,158.773 47.075,158.741 47.095 C 158.708 47.115,158.628 47.335,158.562 47.583 C 158.413 48.142,158.224 48.459,157.745 48.950 C 157.286 49.421,157.068 49.422,157.066 48.954 C 157.066 48.888,156.953 48.759,156.816 48.669 C 156.679 48.578,156.457 48.388,156.323 48.247 C 155.857 47.758,155.077 47.756,154.648 48.244 L 154.445 48.475 154.287 48.304 C 154.046 48.045,153.391 48.096,153.287 48.382 C 153.264 48.447,153.130 48.627,152.989 48.782 C 152.848 48.937,152.733 49.107,152.733 49.160 C 152.733 49.213,152.629 49.355,152.500 49.475 C 152.372 49.596,152.202 49.854,152.122 50.048 C 152.041 50.241,151.936 50.400,151.888 50.400 C 151.839 50.400,151.800 50.443,151.800 50.495 C 151.800 50.931,150.430 51.037,150.073 50.630 C 149.958 50.500,149.835 50.412,149.799 50.434 C 149.763 50.456,149.733 50.427,149.733 50.370 C 149.733 50.226,149.082 49.239,148.719 48.833 C 148.365 48.438,148.277 48.282,148.176 47.874 C 148.085 47.505,147.943 47.458,147.541 47.663 C 147.187 47.843,147.027 47.836,146.894 47.633 C 146.834 47.542,146.736 47.466,146.676 47.464 C 146.528 47.461,146.321 47.279,146.166 47.017 C 146.071 46.856,145.991 46.800,145.854 46.800 C 145.698 46.800,145.649 46.751,145.530 46.475 C 145.374 46.110,145.215 45.946,144.630 45.544 C 144.151 45.214,144.011 45.202,143.710 45.467 C 143.496 45.655,143.450 45.667,142.925 45.666 C 142.618 45.666,142.101 45.717,141.777 45.779 C 141.084 45.912,141.010 45.885,140.875 45.452 C 140.805 45.225,140.731 45.127,140.579 45.058 C 140.440 44.995,140.350 44.887,140.290 44.712 C 140.242 44.572,140.120 44.372,140.018 44.269 C 139.917 44.165,139.755 43.995,139.659 43.890 C 139.477 43.692,138.331 43.219,138.212 43.293 C 138.178 43.314,138.057 43.285,137.943 43.228 C 137.785 43.149,137.515 43.126,136.785 43.129 C 136.262 43.131,135.657 43.104,135.441 43.068 C 134.834 42.969,134.258 43.282,133.327 44.217 C 133.154 44.391,132.979 44.533,132.939 44.533 C 132.899 44.533,132.867 44.572,132.867 44.620 C 132.867 44.668,132.778 44.847,132.670 45.017 C 132.562 45.187,132.453 45.437,132.428 45.573 C 132.402 45.709,132.286 45.928,132.169 46.060 C 131.813 46.462,131.223 47.800,130.998 48.717 C 130.915 49.053,130.780 49.084,130.634 48.801 C 130.088 47.745,128.810 48.479,128.468 50.045 C 128.400 50.357,128.207 50.902,128.039 51.256 C 127.872 51.610,127.703 52.050,127.665 52.233 C 127.627 52.417,127.519 52.724,127.426 52.917 L 127.257 53.267 126.912 53.263 C 126.722 53.261,126.057 53.228,125.433 53.191 C 124.810 53.153,124.011 53.117,123.657 53.111 C 123.150 53.102,122.987 53.075,122.885 52.983 C 122.814 52.919,122.666 52.867,122.555 52.867 C 122.444 52.867,122.285 52.807,122.200 52.733 C 122.115 52.660,121.996 52.600,121.934 52.600 C 121.872 52.600,121.764 52.495,121.695 52.367 C 121.626 52.238,121.539 52.133,121.502 52.132 C 121.464 52.132,121.343 51.950,121.233 51.728 C 121.123 51.506,120.913 51.210,120.767 51.070 C 120.620 50.930,120.391 50.684,120.258 50.522 C 120.021 50.234,120.003 50.225,119.358 50.108 C 118.377 49.931,118.266 49.885,117.917 49.512 C 117.253 48.802,115.585 48.844,115.027 49.584 C 114.923 49.721,114.683 49.999,114.491 50.201 C 114.216 50.491,114.097 50.692,113.920 51.167 C 113.705 51.745,113.400 52.060,113.400 51.705 C 113.400 51.627,113.331 51.600,113.133 51.600 L 112.867 51.600 112.867 52.100 L 112.867 52.600 112.650 52.599 C 112.531 52.599,111.068 52.524,109.400 52.433 C 107.732 52.342,106.269 52.267,106.149 52.267 C 105.944 52.267,105.933 52.255,105.967 52.067 C 105.987 51.953,105.973 51.867,105.934 51.867 C 105.897 51.867,105.867 51.897,105.867 51.933 C 105.867 51.970,105.823 52.000,105.770 52.000 C 105.717 52.000,105.647 52.047,105.615 52.105 C 105.573 52.178,105.480 52.203,105.300 52.188 C 105.005 52.163,104.889 52.000,105.166 52.000 C 105.354 52.000,105.479 51.908,105.552 51.717 C 105.576 51.653,105.643 51.600,105.701 51.600 C 105.780 51.600,105.791 51.572,105.744 51.488 C 105.683 51.378,105.575 51.346,105.156 51.310 C 104.881 51.287,104.719 51.151,104.771 50.987 C 104.862 50.699,104.514 50.564,104.296 50.804 C 104.191 50.920,104.187 50.951,104.267 51.000 C 104.376 51.068,104.369 51.077,104.112 51.187 C 104.008 51.232,103.893 51.250,103.856 51.226 C 103.813 51.200,103.796 51.278,103.811 51.437 C 103.839 51.750,103.498 51.909,103.259 51.693 C 103.139 51.584,103.133 51.587,103.133 51.756 C 103.133 51.974,103.017 51.988,102.938 51.779 C 102.886 51.641,102.840 51.626,102.504 51.635 C 102.119 51.645,101.962 51.564,102.157 51.455 C 102.287 51.382,102.302 51.267,102.181 51.267 C 102.134 51.267,102.057 51.169,102.009 51.050 C 101.948 50.899,101.910 50.864,101.884 50.933 C 101.830 51.078,101.718 51.136,101.575 51.091 C 101.489 51.064,101.461 51.080,101.484 51.143 C 101.502 51.193,101.550 51.226,101.592 51.217 C 101.748 51.182,101.659 51.333,101.499 51.373 C 101.200 51.448,100.512 51.212,100.478 51.023 C 100.411 50.640,99.972 50.175,99.583 50.073 C 99.291 49.997,99.200 49.944,99.200 49.850 C 99.200 49.782,99.130 49.661,99.045 49.580 C 98.960 49.499,98.870 49.378,98.845 49.310 C 98.820 49.243,98.740 49.172,98.669 49.153 C 98.597 49.134,98.520 49.062,98.498 48.993 C 98.476 48.924,98.377 48.850,98.279 48.829 C 98.181 48.808,98.031 48.763,97.947 48.729 C 97.645 48.606,97.044 48.859,96.726 49.242 C 96.678 49.300,96.480 49.448,96.286 49.573 C 96.092 49.697,95.933 49.829,95.933 49.866 C 95.933 49.903,95.894 49.933,95.846 49.933 C 95.798 49.933,95.634 49.993,95.483 50.066 C 95.226 50.190,94.857 50.213,94.755 50.111 C 94.667 50.022,94.226 50.073,93.933 50.206 C 93.495 50.405,92.833 50.405,92.447 50.207 L 92.150 50.054 91.892 50.217 C 91.482 50.475,90.972 50.574,90.762 50.436 C 90.622 50.344,90.553 50.338,90.364 50.401 C 90.087 50.492,88.718 50.380,88.300 50.231 C 87.826 50.063,87.390 50.149,86.554 50.575 L 85.809 50.955 84.830 50.880 C 84.061 50.821,83.803 50.775,83.622 50.669 C 83.496 50.594,83.342 50.533,83.280 50.533 C 83.085 50.531,82.251 49.982,81.901 49.625 C 81.567 49.284,80.929 48.887,80.430 48.710 C 80.191 48.625,79.718 48.401,79.153 48.105 C 79.036 48.044,78.758 47.964,78.534 47.928 C 78.311 47.892,77.837 47.754,77.481 47.620 C 77.004 47.441,76.710 47.373,76.367 47.360 C 75.548 47.331,75.346 47.277,75.216 47.052 C 75.136 46.912,74.954 46.784,74.626 46.634 C 74.150 46.415,73.941 46.214,73.706 45.749 C 73.618 45.575,73.566 45.539,73.446 45.570 C 73.338 45.597,73.205 45.538,72.977 45.364 C 72.662 45.124,72.657 45.123,72.436 45.227 C 72.087 45.393,71.820 45.364,71.590 45.133 C 71.480 45.023,71.325 44.930,71.245 44.926 C 71.165 44.922,71.049 44.915,70.986 44.910 C 70.923 44.904,70.690 44.740,70.467 44.544 C 70.006 44.139,70.033 44.138,69.499 44.584 C 69.279 44.767,68.958 44.984,68.784 45.065 C 68.610 45.147,68.374 45.321,68.260 45.452 C 68.054 45.686,68.050 45.688,67.942 45.554 C 67.780 45.353,67.628 45.325,67.496 45.471 C 67.382 45.597,67.373 45.587,67.152 45.130 C 66.994 44.804,66.869 44.636,66.745 44.582 C 66.144 44.319,65.954 44.141,65.662 43.565 C 65.427 43.101,65.353 43.006,65.252 43.038 C 65.184 43.060,64.965 43.010,64.765 42.927 C 64.447 42.795,64.382 42.787,64.235 42.866 C 63.979 43.003,63.582 42.860,63.399 42.565 C 63.215 42.267,63.021 42.133,62.773 42.133 C 62.621 42.133,62.503 42.056,62.267 41.800 C 61.874 41.375,61.748 41.374,61.238 41.798 C 60.793 42.169,60.733 42.168,60.733 41.796 C 60.733 41.590,60.708 41.533,60.616 41.533 C 60.502 41.533,59.970 41.065,57.367 38.676 C 55.736 37.178,55.505 37.019,55.182 37.173 L 54.945 37.286 54.356 36.856 C 53.679 36.362,53.083 35.995,52.701 35.837 C 52.555 35.776,52.375 35.672,52.301 35.605 C 52.111 35.431,51.805 35.287,51.431 35.192 C 51.253 35.148,50.862 34.966,50.561 34.789 C 49.898 34.399,49.983 34.400,49.354 34.772 C 48.917 35.031,48.793 35.074,48.552 35.055 C 48.395 35.043,48.267 35.059,48.267 35.092 C 48.267 35.125,48.137 35.013,47.979 34.843 C 47.703 34.546,47.459 34.450,47.367 34.600 C 47.301 34.706,47.212 34.678,47.167 34.535 C 47.096 34.311,46.752 34.041,46.317 33.866 C 45.954 33.721,45.867 33.649,45.645 33.316 C 45.444 33.014,45.353 32.933,45.218 32.933 C 45.123 32.933,44.904 32.843,44.732 32.732 C 44.435 32.542,44.409 32.537,44.226 32.632 C 43.915 32.794,43.615 32.760,43.356 32.533 C 43.187 32.384,43.063 32.333,42.868 32.333 C 42.725 32.333,42.592 32.308,42.573 32.276 C 42.553 32.245,42.372 32.092,42.170 31.936 L 41.803 31.653 41.385 31.980 C 41.155 32.160,40.762 32.406,40.512 32.527 C 40.262 32.647,40.041 32.789,40.021 32.842 C 40.001 32.894,39.785 33.067,39.542 33.226 C 39.299 33.384,38.840 33.758,38.523 34.057 C 37.892 34.651,37.897 34.648,37.723 34.491 C 37.630 34.406,37.582 34.399,37.509 34.459 C 37.433 34.522,37.342 34.437,37.024 34.004 C 36.546 33.352,36.590 33.351,36.084 34.034 C 35.810 34.403,35.635 34.584,35.573 34.560 C 35.407 34.496,35.072 34.727,34.933 35.001 C 34.846 35.171,34.751 35.267,34.670 35.267 C 34.462 35.267,34.174 35.136,34.062 34.991 C 33.961 34.860,33.950 34.866,33.641 35.228 C 33.389 35.522,33.282 35.600,33.128 35.600 C 33.006 35.600,32.933 35.635,32.933 35.693 C 32.933 36.156,32.323 37.095,31.889 37.301 C 31.621 37.428,31.496 37.607,31.303 38.138 C 31.160 38.534,31.157 38.537,31.036 38.402 C 30.882 38.233,30.837 38.233,30.679 38.402 C 30.508 38.586,30.389 38.523,30.107 38.097 C 29.836 37.689,29.574 37.562,29.425 37.767 C 29.341 37.882,29.335 37.882,29.292 37.760 C 29.141 37.331,28.888 37.049,28.450 36.827 C 27.979 36.588,27.739 36.329,27.505 35.811 C 27.396 35.568,27.352 35.533,27.165 35.533 C 27.046 35.533,26.835 35.485,26.695 35.427 C 26.486 35.339,26.398 35.335,26.202 35.399 C 25.887 35.503,25.482 35.350,25.319 35.065 C 25.201 34.858,24.970 34.733,24.704 34.733 C 24.611 34.733,24.433 34.615,24.251 34.433 C 24.022 34.205,23.901 34.133,23.740 34.133 C 23.572 34.133,23.516 34.097,23.460 33.950 C 23.319 33.579,22.983 33.392,22.891 33.633 C 22.828 33.797,22.747 33.748,22.697 33.517 C 22.607 33.104,22.347 32.612,22.156 32.492 C 21.551 32.111,21.439 31.962,21.161 31.167 C 20.974 30.634,20.931 30.564,20.776 30.546 C 20.662 30.532,20.516 30.416,20.354 30.212 C 20.218 30.041,20.084 29.873,20.057 29.841 C 20.030 29.808,19.914 29.861,19.799 29.957 C 19.684 30.054,19.555 30.132,19.512 30.130 C 19.345 30.124,18.523 29.273,18.148 28.720 C 17.783 28.181,17.747 28.148,17.645 28.250 C 17.542 28.353,17.529 28.353,17.450 28.245 C 17.376 28.143,17.325 28.192,17.000 28.682 M293.733 46.061 C 293.733 46.177,293.652 46.333,293.593 46.333 C 293.560 46.333,293.533 46.258,293.533 46.167 C 293.533 46.063,293.571 46.000,293.633 46.000 C 293.688 46.000,293.733 46.028,293.733 46.061 M309.646 48.702 C 309.677 48.798,309.347 48.774,309.248 48.673 C 309.183 48.608,309.214 48.595,309.395 48.612 C 309.520 48.624,309.633 48.664,309.646 48.702 M309.881 49.074 C 309.793 49.151,309.400 49.198,309.400 49.132 C 309.400 49.096,309.430 49.063,309.467 49.058 C 309.503 49.054,309.562 49.046,309.597 49.042 C 309.631 49.037,309.697 48.996,309.743 48.950 C 309.809 48.885,309.836 48.884,309.877 48.950 C 309.905 48.995,309.907 49.051,309.881 49.074 M298.933 49.800 C 298.933 49.837,298.890 49.867,298.837 49.867 C 298.784 49.867,298.723 49.837,298.700 49.800 C 298.677 49.763,298.721 49.733,298.796 49.733 C 298.872 49.733,298.933 49.763,298.933 49.800 M305.518 49.921 C 305.534 49.967,305.504 49.985,305.448 49.963 C 305.394 49.942,305.333 49.972,305.311 50.030 C 305.267 50.144,304.965 50.172,304.900 50.067 C 304.877 50.029,304.930 50.000,305.021 50.000 C 305.111 50.000,305.222 49.954,305.269 49.898 C 305.361 49.786,305.477 49.797,305.518 49.921 M308.467 49.900 C 308.536 49.984,308.526 50.000,308.408 50.000 C 308.327 50.000,308.267 49.957,308.267 49.900 C 308.267 49.845,308.293 49.800,308.325 49.800 C 308.357 49.800,308.421 49.845,308.467 49.900 M304.160 50.039 C 304.216 50.187,304.212 50.200,304.104 50.200 C 303.986 50.200,303.911 50.090,303.967 50.000 C 304.027 49.902,304.114 49.919,304.160 50.039 M301.029 51.526 C 301.074 51.599,300.913 51.667,300.698 51.667 C 300.488 51.667,300.425 51.550,300.616 51.514 C 300.884 51.462,300.991 51.465,301.029 51.526 M104.333 51.617 C 104.333 51.644,104.243 51.667,104.133 51.667 C 104.023 51.667,103.933 51.641,103.933 51.610 C 103.933 51.578,104.023 51.556,104.133 51.560 C 104.243 51.563,104.333 51.589,104.333 51.617 M104.265 51.936 C 104.138 52.016,104.000 52.017,104.000 51.938 C 104.000 51.877,104.270 51.806,104.331 51.851 C 104.349 51.864,104.319 51.902,104.265 51.936 " stroke="none" fill="url(#svg-gradient)" fill-rule="evenodd"></path></g>
</svg>