<svg id="svg" xmlns="http://www.w3.org/2000/svg" xmlns:xlink="http://www.w3.org/1999/xlink" width="400" height="133.33333333333334" viewBox="0, 0, 400,133.33333333333334">
  <defs>
      <linearGradient id="svg-gradient" x1="0" x2="0" y1="0" y2="1">
        <stop offset="11%" stop-color="#a1437b"/>
        <stop offset="100%" stop-color="#391a38"/>
      </linearGradient>
  </defs>
  <g id="svgg"><path id="path0" d="M37.210 60.426 C 36.990 60.815,36.832 60.950,36.267 61.233 C 36.065 61.333,35.690 61.617,35.433 61.863 C 35.017 62.262,34.905 62.330,34.400 62.495 C 33.277 62.860,33.091 63.056,32.827 64.147 C 32.309 66.297,31.986 66.897,30.937 67.660 C 30.332 68.099,30.157 68.297,30.000 68.717 C 29.721 69.459,29.470 69.857,28.985 70.325 C 28.476 70.815,28.496 70.778,27.995 72.155 C 27.904 72.404,27.823 72.531,27.769 72.510 C 27.723 72.492,27.523 72.625,27.326 72.804 C 26.869 73.219,26.338 73.172,26.049 72.692 C 25.842 72.350,25.637 72.362,25.221 72.741 C 25.067 72.881,24.857 73.013,24.754 73.035 C 24.447 73.100,24.368 73.169,24.346 73.390 C 24.334 73.506,24.312 73.600,24.295 73.600 C 24.279 73.600,23.764 73.476,23.150 73.325 C 22.427 73.148,21.798 73.036,21.367 73.009 L 20.701 72.967 20.400 72.557 C 20.060 72.093,19.986 72.045,19.444 71.934 L 19.054 71.854 18.822 71.344 C 18.695 71.063,18.541 70.728,18.481 70.600 C 18.422 70.472,18.110 70.106,17.790 69.788 C 17.242 69.245,17.209 69.196,17.243 68.985 C 17.296 68.658,16.730 68.264,16.538 68.494 C 16.295 68.788,15.517 68.690,15.045 68.308 C 14.487 67.856,14.325 67.814,13.943 68.022 C 13.697 68.155,13.567 68.186,13.380 68.156 C 13.150 68.119,13.113 68.139,12.736 68.525 C 12.279 68.992,12.287 68.990,11.904 68.766 C 11.555 68.561,11.518 68.592,11.373 69.217 C 11.154 70.162,10.829 70.593,10.254 70.701 C 10.057 70.737,9.974 70.807,9.807 71.075 C 9.643 71.340,9.522 71.442,9.188 71.601 C 8.954 71.711,8.670 71.913,8.537 72.064 L 8.300 72.331 7.297 72.361 L 6.295 72.391 6.043 72.629 C 5.698 72.954,5.470 72.929,4.504 72.464 C 3.896 72.171,3.734 72.156,3.410 72.360 C 3.259 72.455,3.120 72.533,3.101 72.533 C 3.081 72.533,2.916 72.638,2.733 72.767 L 2.401 73.000 1.201 73.000 L 0.000 73.000 0.000 103.167 L 0.000 133.333 200.000 133.333 L 400.000 133.333 400.000 103.167 L 400.000 73.000 399.762 73.000 C 399.516 73.000,398.071 72.314,397.467 71.911 C 397.302 71.801,396.777 71.330,396.300 70.866 C 394.449 69.062,394.102 68.816,393.633 68.980 C 393.325 69.088,392.908 69.050,392.308 68.858 C 391.870 68.719,391.498 68.699,391.228 68.802 C 390.970 68.900,389.483 70.411,389.364 70.696 C 389.245 70.981,388.916 71.230,388.151 71.614 C 387.817 71.782,387.391 72.071,387.121 72.312 C 386.348 73.004,385.322 73.225,384.400 72.900 C 383.957 72.744,383.775 72.772,382.595 73.178 L 381.489 73.558 380.443 73.494 L 379.396 73.431 379.024 73.013 C 378.409 72.323,377.891 72.174,377.179 72.483 C 376.434 72.807,375.611 72.673,374.723 72.085 C 374.586 71.994,374.044 71.761,373.520 71.567 C 372.996 71.373,372.332 71.123,372.045 71.012 C 371.573 70.829,371.288 70.775,370.902 70.794 C 370.830 70.797,370.530 71.048,370.235 71.351 C 369.547 72.059,369.243 72.313,368.458 72.835 C 368.105 73.070,367.682 73.412,367.517 73.595 C 367.352 73.779,367.026 74.087,366.792 74.280 C 366.558 74.473,366.339 74.676,366.304 74.731 C 366.072 75.108,365.647 75.459,365.468 75.424 C 365.162 75.362,365.034 75.490,364.810 76.080 C 364.271 77.500,364.121 77.611,362.347 77.910 C 360.842 78.164,360.685 78.172,360.494 78.012 C 360.259 77.816,359.746 77.078,359.701 76.871 C 359.648 76.628,359.512 76.510,359.346 76.563 C 359.158 76.622,359.008 76.542,358.894 76.322 C 358.741 76.025,357.899 75.168,357.527 74.929 C 357.284 74.773,356.995 74.450,356.429 73.698 C 355.385 72.314,355.290 72.272,354.274 72.767 C 353.829 72.983,353.576 73.067,353.364 73.067 C 353.044 73.067,352.599 73.569,351.961 74.650 C 351.596 75.269,351.325 75.481,350.579 75.729 C 350.228 75.846,349.868 75.999,349.779 76.069 C 349.691 76.138,349.382 76.258,349.092 76.334 C 348.594 76.466,348.545 76.496,348.148 76.919 L 347.730 77.364 347.312 77.366 C 346.730 77.367,346.609 77.465,346.308 78.177 C 345.929 79.072,344.973 79.793,343.895 79.994 C 343.669 80.037,343.513 80.124,343.310 80.323 L 343.033 80.594 341.033 80.831 C 338.961 81.077,334.311 81.600,334.198 81.600 C 334.162 81.600,334.133 81.542,334.133 81.472 C 334.133 81.162,333.553 80.704,333.288 80.804 C 333.184 80.843,333.097 80.824,332.988 80.739 C 332.537 80.388,332.262 80.347,332.036 80.597 C 331.924 80.721,331.916 80.720,331.618 80.562 C 330.826 80.141,329.807 80.648,329.154 81.790 C 329.056 81.960,328.966 82.113,328.954 82.128 C 328.932 82.157,326.866 82.384,325.240 82.535 C 324.078 82.644,324.000 82.560,324.000 81.192 C 324.000 80.569,323.953 80.456,323.597 80.231 C 323.389 80.100,323.315 80.000,323.252 79.765 C 323.183 79.506,323.149 79.467,322.994 79.467 C 322.775 79.467,322.658 79.302,322.506 78.778 C 322.434 78.531,322.302 78.289,322.143 78.112 C 322.006 77.959,321.842 77.751,321.779 77.650 C 321.715 77.549,321.621 77.467,321.569 77.467 C 321.406 77.467,321.267 77.185,321.267 76.856 C 321.267 76.567,321.246 76.527,321.006 76.354 C 320.674 76.116,320.371 75.665,320.242 75.218 C 320.186 75.026,320.054 74.741,319.947 74.584 C 319.840 74.428,319.716 74.187,319.671 74.049 C 319.618 73.887,319.520 73.762,319.394 73.697 C 319.288 73.642,319.200 73.571,319.200 73.539 C 319.200 73.507,319.082 73.338,318.937 73.163 C 318.761 72.950,318.667 72.765,318.653 72.607 C 318.613 72.134,317.335 71.563,316.757 71.760 C 315.950 72.035,315.452 71.560,314.467 69.576 C 313.887 68.408,313.794 68.330,312.834 68.202 C 311.700 68.050,311.178 67.745,311.090 67.182 C 311.054 66.952,310.975 66.832,310.662 66.533 C 310.450 66.332,310.213 66.038,310.136 65.881 C 310.058 65.723,309.925 65.568,309.840 65.536 C 309.657 65.466,309.526 65.166,309.368 64.450 C 309.275 64.031,309.230 63.933,309.129 63.933 C 309.000 63.933,308.839 63.716,308.913 63.642 C 308.937 63.619,308.906 63.600,308.846 63.600 C 308.786 63.600,308.687 63.502,308.627 63.383 C 308.426 62.986,308.133 62.776,308.133 63.029 C 308.133 63.082,308.106 63.142,308.073 63.163 C 308.004 63.205,307.733 62.685,307.733 62.512 C 307.733 62.451,307.705 62.400,307.671 62.400 C 307.376 62.400,306.511 61.632,306.565 61.417 C 306.592 61.310,306.569 61.251,306.490 61.220 C 306.427 61.196,306.263 61.067,306.125 60.933 C 305.581 60.405,304.941 60.173,304.557 60.365 C 304.449 60.419,304.064 60.496,303.701 60.537 C 303.250 60.587,302.942 60.661,302.723 60.772 C 302.328 60.972,302.299 60.972,302.055 60.767 C 301.786 60.541,301.733 60.556,301.733 60.857 C 301.733 61.507,301.490 61.749,301.059 61.529 C 300.779 61.387,300.671 61.419,300.668 61.644 C 300.667 61.687,300.536 61.837,300.377 61.978 C 300.218 62.118,300.052 62.301,300.008 62.383 C 299.953 62.487,299.868 62.533,299.733 62.533 C 299.462 62.533,299.400 62.688,299.400 63.364 C 299.400 63.850,299.382 63.944,299.283 63.979 C 299.082 64.050,298.873 64.278,298.797 64.510 C 298.749 64.655,298.680 64.733,298.601 64.733 C 298.500 64.733,298.474 64.799,298.451 65.117 C 298.437 65.328,298.372 65.770,298.309 66.100 C 298.245 66.430,298.151 66.939,298.099 67.230 C 297.944 68.109,297.829 68.180,296.846 68.011 C 296.244 67.907,295.376 67.160,294.972 66.399 C 294.866 66.198,294.558 65.758,294.290 65.422 L 293.801 64.811 293.150 64.563 C 292.755 64.412,292.452 64.253,292.378 64.157 C 292.028 63.707,291.300 64.378,290.734 65.672 C 290.376 66.489,290.258 66.637,289.764 66.887 C 289.604 66.967,289.535 67.072,289.439 67.378 C 289.204 68.128,289.051 68.479,288.869 68.689 C 288.718 68.862,288.679 68.983,288.648 69.367 C 288.613 69.814,288.328 70.632,288.143 70.817 C 288.101 70.859,288.067 71.064,288.067 71.272 C 288.067 71.529,288.034 71.677,287.965 71.735 C 287.905 71.785,287.870 71.908,287.879 72.039 C 287.887 72.169,287.848 72.310,287.783 72.382 C 287.661 72.516,287.378 73.133,287.311 73.405 C 287.276 73.551,287.240 73.573,287.077 73.549 C 286.817 73.511,286.544 73.664,286.103 74.094 C 285.759 74.430,285.717 74.452,285.477 74.420 C 285.335 74.401,285.158 74.418,285.082 74.458 C 284.978 74.514,284.887 74.507,284.699 74.429 C 284.413 74.309,284.279 74.383,284.131 74.738 C 284.036 74.968,284.005 74.973,283.681 74.807 C 283.314 74.619,283.114 74.407,282.868 73.946 C 282.715 73.659,282.548 73.461,282.324 73.299 C 282.146 73.172,282.000 73.021,282.000 72.964 C 282.000 72.678,281.721 72.467,281.344 72.467 C 281.005 72.467,280.959 72.446,280.660 72.167 C 280.315 71.844,280.125 71.798,279.813 71.961 C 279.465 72.143,279.000 72.728,279.000 72.983 C 279.000 73.070,278.880 73.266,278.722 73.438 C 278.458 73.724,278.444 73.760,278.455 74.120 C 278.461 74.329,278.431 74.641,278.388 74.814 C 278.329 75.050,278.328 75.189,278.385 75.374 C 278.451 75.590,278.435 75.697,278.257 76.241 C 278.075 76.799,278.062 76.895,278.125 77.191 C 278.202 77.549,278.207 77.524,277.782 78.913 C 277.450 79.999,277.440 80.010,276.816 79.993 C 276.385 79.982,276.295 79.998,276.236 80.101 C 275.783 80.887,275.205 80.736,274.359 79.610 C 274.270 79.490,273.126 79.342,272.801 79.409 C 272.651 79.439,272.469 79.575,272.228 79.836 L 271.875 80.218 271.646 79.976 C 271.284 79.591,270.276 79.736,270.212 80.181 C 270.201 80.262,270.060 80.474,269.900 80.653 C 269.740 80.831,269.534 81.144,269.444 81.349 C 269.353 81.554,269.199 81.774,269.102 81.838 C 268.906 81.967,268.743 82.257,268.569 82.788 C 268.498 83.005,268.403 83.161,268.325 83.190 C 268.255 83.216,268.146 83.341,268.082 83.469 C 267.905 83.823,267.628 83.922,266.743 83.946 L 265.985 83.967 265.684 83.634 C 265.519 83.452,265.335 83.302,265.275 83.301 C 265.210 83.300,265.158 83.233,265.144 83.133 C 265.110 82.886,264.158 81.390,263.719 80.896 C 263.236 80.351,263.040 80.002,262.936 79.500 C 262.787 78.786,262.612 78.723,261.926 79.138 C 261.424 79.441,261.247 79.414,261.033 78.999 C 260.972 78.882,260.865 78.803,260.730 78.776 C 260.507 78.731,260.185 78.431,259.965 78.060 C 259.850 77.867,259.792 77.833,259.575 77.829 C 259.324 77.824,259.318 77.818,259.127 77.360 C 258.881 76.772,258.630 76.469,258.075 76.092 C 257.832 75.926,257.528 75.716,257.400 75.624 C 257.082 75.396,256.839 75.449,256.517 75.816 L 256.268 76.100 255.251 76.138 C 254.494 76.166,254.076 76.216,253.617 76.334 C 252.769 76.553,252.685 76.518,252.467 75.866 C 252.329 75.453,252.266 75.352,252.100 75.275 C 251.779 75.126,251.667 74.995,251.586 74.671 C 251.537 74.475,251.418 74.272,251.252 74.100 C 251.109 73.953,250.897 73.701,250.780 73.539 C 250.560 73.236,250.587 73.250,249.211 72.691 C 248.978 72.596,248.716 72.534,248.625 72.551 C 248.535 72.569,248.355 72.529,248.227 72.463 C 247.902 72.298,247.172 72.245,246.267 72.321 C 245.668 72.371,245.369 72.364,244.900 72.289 C 244.570 72.236,244.240 72.191,244.167 72.188 C 243.916 72.181,243.049 72.663,242.673 73.019 C 242.468 73.213,242.185 73.459,242.044 73.565 C 241.903 73.671,241.686 73.918,241.562 74.112 C 241.397 74.370,241.294 74.467,241.184 74.467 C 241.064 74.467,241.014 74.526,240.945 74.750 C 240.897 74.906,240.770 75.169,240.664 75.335 C 240.558 75.502,240.437 75.802,240.394 76.002 C 240.299 76.454,240.240 76.573,239.968 76.867 C 239.587 77.279,238.652 79.561,238.427 80.632 C 238.278 81.340,237.998 81.648,237.902 81.210 C 237.778 80.643,236.729 80.160,236.207 80.429 C 235.526 80.782,235.005 81.684,234.742 82.968 C 234.589 83.712,234.469 84.084,234.147 84.809 C 233.893 85.381,233.693 85.955,233.605 86.357 C 233.365 87.469,233.339 87.507,232.813 87.557 C 232.008 87.633,231.600 87.613,231.600 87.497 C 231.600 87.368,231.338 87.257,230.421 86.998 C 228.382 86.424,228.159 86.382,227.300 86.417 C 226.763 86.439,226.401 86.421,226.200 86.365 C 226.035 86.318,225.615 86.244,225.266 86.200 L 224.633 86.121 224.366 85.553 C 224.166 85.126,224.022 84.920,223.788 84.723 C 223.616 84.579,223.338 84.253,223.170 83.998 C 222.828 83.478,222.684 83.363,222.300 83.299 C 220.404 82.984,219.948 82.809,219.600 82.267 C 219.305 81.807,219.180 81.733,218.699 81.733 C 218.477 81.733,218.140 81.679,217.951 81.612 C 216.954 81.261,215.915 81.737,215.138 82.900 C 215.015 83.083,214.768 83.385,214.589 83.571 C 214.296 83.873,214.231 84.002,213.958 84.804 C 213.619 85.804,213.583 85.867,213.359 85.867 C 213.234 85.867,213.200 85.831,213.200 85.700 C 213.200 85.552,213.172 85.533,212.950 85.533 C 212.742 85.533,212.565 85.436,211.900 84.959 C 211.460 84.642,210.978 84.324,210.829 84.251 L 210.559 84.119 209.963 84.415 C 209.420 84.685,209.172 84.774,208.365 84.991 C 208.217 85.031,207.744 85.272,207.314 85.528 L 206.532 85.992 205.765 85.596 C 204.836 85.117,204.875 85.118,204.023 85.542 C 203.467 85.818,203.237 85.895,202.818 85.942 C 202.533 85.975,202.150 86.034,201.967 86.074 C 201.276 86.224,200.151 86.224,199.638 86.076 C 199.379 86.001,199.027 85.926,198.857 85.910 C 198.606 85.887,198.444 85.805,197.999 85.474 C 197.408 85.035,197.359 85.016,197.163 85.165 C 197.092 85.218,196.975 85.263,196.904 85.265 C 196.833 85.266,196.638 85.382,196.471 85.522 C 195.660 86.202,194.813 86.445,192.941 86.533 C 192.266 86.564,191.640 86.609,191.549 86.632 C 191.422 86.664,191.288 86.608,190.981 86.398 C 190.553 86.104,190.662 86.126,189.316 86.057 C 189.214 86.052,189.075 86.099,189.006 86.161 C 188.937 86.224,188.784 86.287,188.667 86.302 C 188.549 86.317,188.410 86.364,188.358 86.407 C 188.306 86.450,188.156 86.495,188.025 86.507 C 187.893 86.519,187.691 86.601,187.575 86.689 C 187.246 86.940,186.727 86.873,186.367 86.534 C 185.931 86.123,185.466 85.800,185.312 85.800 C 185.029 85.799,184.660 85.657,184.439 85.463 C 184.194 85.247,183.970 85.215,183.758 85.363 C 183.682 85.416,183.385 85.554,183.097 85.668 C 182.474 85.915,180.820 86.747,180.176 87.136 C 179.663 87.447,179.579 87.451,178.900 87.193 C 178.398 87.003,177.396 87.002,176.767 87.192 C 176.428 87.294,176.104 87.313,174.638 87.318 L 172.910 87.323 172.505 87.033 C 172.282 86.873,171.921 86.590,171.703 86.404 C 171.484 86.219,171.251 86.067,171.184 86.067 C 171.116 86.067,170.974 86.003,170.868 85.924 C 170.729 85.821,170.621 85.793,170.477 85.821 C 170.336 85.849,170.230 85.824,170.116 85.734 C 170.004 85.646,169.819 85.600,169.517 85.584 C 169.277 85.571,169.038 85.526,168.986 85.483 C 168.934 85.440,168.715 85.386,168.499 85.363 C 168.283 85.340,167.970 85.268,167.803 85.203 C 167.017 84.897,166.023 85.090,163.833 85.972 C 163.320 86.179,162.675 86.433,162.400 86.535 C 162.125 86.638,161.690 86.819,161.433 86.937 C 160.878 87.192,160.960 87.191,156.033 87.034 C 154.347 86.980,152.412 86.919,151.733 86.898 C 149.894 86.843,149.955 86.857,149.841 86.473 C 149.550 85.492,149.202 85.182,148.310 85.110 C 146.836 84.990,145.475 83.264,144.800 80.656 C 144.674 80.170,144.511 79.965,144.043 79.703 C 143.500 79.399,143.194 79.095,142.607 78.271 C 141.949 77.350,140.913 76.422,140.067 75.996 C 139.598 75.760,139.476 75.614,139.325 75.104 C 139.137 74.472,138.905 74.144,138.465 73.889 C 137.864 73.542,137.658 73.332,137.427 72.833 C 137.308 72.577,137.073 72.127,136.905 71.833 C 136.736 71.540,136.506 71.002,136.392 70.637 C 136.144 69.838,136.093 69.756,135.582 69.329 C 135.362 69.145,135.064 68.847,134.920 68.666 C 134.537 68.184,134.118 68.118,133.479 68.437 C 132.860 68.746,132.613 68.620,132.187 67.773 C 131.101 65.613,129.912 64.916,128.767 65.769 C 128.404 66.039,128.342 66.029,127.713 65.601 C 127.002 65.118,126.684 65.017,125.567 64.920 C 124.229 64.804,123.935 64.933,123.515 65.821 C 123.298 66.278,123.141 66.341,122.734 66.134 C 122.057 65.788,120.946 64.439,120.329 63.214 C 120.111 62.780,119.833 62.329,119.711 62.210 L 119.488 61.995 119.304 62.261 C 119.202 62.408,118.849 62.757,118.520 63.037 C 118.191 63.318,117.828 63.679,117.714 63.840 C 117.424 64.253,117.405 64.245,116.809 63.470 L 116.684 63.306 116.514 63.503 C 116.287 63.767,116.058 64.224,115.732 65.067 C 115.372 65.995,115.138 66.332,114.358 67.040 C 113.998 67.366,113.489 67.843,113.227 68.100 L 112.751 68.567 112.668 69.111 C 112.427 70.697,111.656 70.552,111.199 68.834 C 111.121 68.542,111.045 68.290,111.030 68.274 C 111.004 68.248,110.703 68.448,110.322 68.745 C 110.072 68.941,109.902 68.877,109.334 68.367 C 108.552 67.666,108.310 67.680,107.104 68.493 C 106.139 69.144,105.984 69.180,104.815 69.029 C 104.328 68.966,103.923 68.926,103.915 68.941 C 103.907 68.955,103.840 69.086,103.767 69.232 C 103.680 69.404,103.494 69.592,103.238 69.767 C 102.800 70.065,102.629 70.296,102.565 70.677 C 102.537 70.843,102.423 71.042,102.238 71.249 C 101.896 71.631,101.841 71.733,101.737 72.175 C 101.649 72.553,101.459 72.772,101.034 72.985 C 100.883 73.061,100.610 73.314,100.399 73.574 C 99.689 74.446,99.456 74.457,98.647 73.652 C 98.020 73.026,97.907 72.971,97.067 72.871 C 96.316 72.782,96.165 72.692,95.992 72.227 C 95.839 71.818,95.634 71.677,95.353 71.789 C 94.581 72.097,93.467 72.040,93.275 71.682 C 93.234 71.605,93.026 71.525,92.650 71.443 C 92.112 71.325,91.945 71.250,91.096 70.741 C 90.606 70.448,90.338 70.446,89.824 70.734 C 88.938 71.230,88.929 71.233,88.367 71.233 C 87.712 71.233,87.534 71.151,86.900 70.558 C 86.317 70.013,86.150 69.925,85.647 69.904 C 85.273 69.889,85.228 69.869,85.010 69.627 C 83.457 67.907,83.193 67.677,82.886 67.782 C 82.676 67.854,82.072 67.743,81.902 67.601 C 81.596 67.347,80.067 68.432,80.067 68.903 C 80.067 69.018,79.729 69.268,79.303 69.469 C 79.121 69.555,78.866 69.720,78.736 69.835 C 78.105 70.396,77.811 70.493,77.348 70.293 C 77.060 70.169,76.331 70.157,76.054 70.272 C 75.907 70.333,75.816 70.328,75.614 70.247 C 75.474 70.191,74.955 70.039,74.462 69.909 C 72.967 69.516,72.264 69.184,71.467 68.496 C 70.424 67.597,69.960 67.468,69.498 67.951 C 68.993 68.478,68.778 68.614,68.571 68.535 C 68.145 68.373,67.956 68.438,67.525 68.893 C 67.049 69.395,66.561 69.765,66.501 69.668 C 66.372 69.459,65.704 70.021,65.200 70.763 C 64.777 71.386,64.628 71.533,64.425 71.533 C 64.307 71.533,64.168 71.630,63.970 71.848 C 63.701 72.145,63.675 72.158,63.506 72.082 C 63.197 71.941,62.769 71.979,62.545 72.167 C 62.301 72.372,61.893 72.392,61.659 72.209 C 61.188 71.842,60.885 71.804,60.546 72.071 C 60.317 72.251,60.303 72.245,60.029 71.832 C 59.810 71.502,59.580 71.251,59.161 70.887 C 59.085 70.821,58.810 70.449,58.550 70.060 C 57.921 69.119,57.834 69.086,56.981 69.458 C 56.805 69.535,56.599 69.591,56.522 69.582 C 56.396 69.568,55.680 70.461,55.582 70.753 C 55.566 70.801,55.496 70.780,55.386 70.694 C 55.226 70.568,55.014 70.495,54.054 70.235 C 53.399 70.057,53.079 69.694,52.762 68.767 C 52.494 67.982,52.345 67.867,51.590 67.867 C 51.084 67.867,51.059 67.859,50.803 67.628 C 50.623 67.466,50.488 67.396,50.379 67.411 C 50.250 67.428,50.140 67.335,49.811 66.932 C 49.586 66.658,49.229 66.245,49.018 66.016 L 48.633 65.598 48.217 65.874 L 47.800 66.151 47.267 65.642 C 46.650 65.052,46.502 65.014,46.096 65.336 C 45.648 65.693,45.274 65.458,45.168 64.753 C 45.100 64.298,45.028 64.191,44.183 63.292 C 43.608 62.680,43.355 62.351,43.140 61.938 C 42.789 61.264,42.569 61.008,42.165 60.806 C 41.820 60.634,41.913 60.622,40.967 60.962 C 40.079 61.281,39.582 61.204,38.836 60.633 C 37.920 59.932,37.518 59.881,37.210 60.426 " stroke="none" fill="url(#svg-gradient)" fill-rule="evenodd"></path></g>
</svg>