<svg id="svg" xmlns="http://www.w3.org/2000/svg" xmlns:xlink="http://www.w3.org/1999/xlink" width="100%" height="100%" viewBox="0, 0, 400,133.33333333333334">
  <defs>
      <linearGradient id="svg-gradient" x1="0" x2="0" y1="0" y2="1">
        <stop offset="0%" stop-color="#81327b"/>
        <stop offset="100%" stop-color="#20122b"/>
      </linearGradient>
  </defs>
  <g id="svgg"><path id="path0" d="M327.033 54.875 C 325.197 55.397,323.403 56.992,321.096 60.159 C 320.805 60.558,319.666 62.088,318.566 63.559 C 315.262 67.976,313.928 69.926,312.401 72.567 C 311.334 74.414,311.042 75.048,310.227 77.289 C 309.368 79.650,308.638 80.951,307.757 81.691 L 307.547 81.867 307.093 81.184 C 306.844 80.808,306.619 80.475,306.595 80.445 C 306.570 80.415,306.406 80.573,306.230 80.797 C 305.854 81.277,305.859 81.280,305.637 80.467 C 305.294 79.212,305.255 79.109,305.044 78.912 C 304.776 78.662,304.354 78.684,303.713 78.984 C 302.265 79.662,301.618 81.277,300.968 85.833 C 300.678 87.866,300.577 88.363,300.329 88.976 C 300.120 89.490,299.906 90.340,299.832 90.943 L 299.786 91.319 299.543 91.252 C 299.214 91.161,298.545 91.222,298.264 91.370 C 297.939 91.539,297.707 91.551,297.150 91.427 L 296.663 91.319 296.282 91.502 C 296.072 91.603,295.663 91.801,295.373 91.943 C 295.083 92.084,294.804 92.200,294.754 92.200 C 294.703 92.200,294.514 92.275,294.333 92.367 C 294.152 92.458,293.965 92.533,293.917 92.533 C 293.869 92.533,293.597 92.623,293.311 92.733 C 293.025 92.843,292.675 92.933,292.532 92.933 C 292.055 92.933,291.446 93.212,290.933 93.666 C 290.842 93.747,290.557 93.913,290.300 94.035 C 290.043 94.158,289.765 94.322,289.682 94.400 C 289.598 94.478,289.360 94.600,289.152 94.672 C 288.652 94.844,287.762 95.329,287.284 95.690 C 287.073 95.850,286.821 96.023,286.724 96.074 C 286.401 96.245,285.994 96.670,285.864 96.973 C 285.693 97.372,285.136 97.950,284.711 98.170 C 284.521 98.268,284.259 98.459,284.127 98.594 C 283.707 99.025,283.155 99.350,282.825 99.359 C 282.602 99.365,282.497 99.407,282.383 99.535 C 282.128 99.823,281.371 100.253,281.121 100.253 C 280.996 100.253,280.788 100.298,280.657 100.352 C 280.527 100.407,280.290 100.473,280.132 100.500 C 279.974 100.527,279.752 100.605,279.639 100.674 C 279.056 101.030,277.299 100.527,276.387 99.744 C 275.180 98.706,273.301 98.175,272.474 98.637 C 271.768 99.033,268.691 99.342,268.080 99.079 C 267.746 98.935,267.596 98.941,267.400 99.103 C 266.994 99.441,266.593 99.541,266.452 99.340 C 266.391 99.253,266.242 99.198,265.977 99.165 C 265.644 99.123,265.514 99.059,265.015 98.692 C 264.357 98.207,264.296 98.193,264.036 98.464 C 263.931 98.573,263.818 98.645,263.784 98.623 C 263.750 98.602,263.627 98.675,263.511 98.784 C 263.264 99.017,263.200 99.025,261.933 98.984 C 261.265 98.962,261.217 98.951,260.867 98.727 C 260.665 98.598,260.463 98.470,260.417 98.443 C 260.233 98.332,259.568 98.195,259.546 98.263 C 259.530 98.309,259.482 98.311,259.402 98.268 C 259.311 98.219,259.225 98.241,259.057 98.354 C 258.573 98.681,257.624 98.525,257.060 98.026 C 257.002 97.974,256.882 97.939,256.794 97.949 C 256.666 97.963,256.608 97.914,256.509 97.712 C 256.396 97.482,256.096 97.201,255.567 96.833 C 255.461 96.760,255.313 96.629,255.237 96.543 C 254.824 96.070,254.106 95.415,253.516 94.972 C 253.090 94.651,252.646 94.658,252.248 94.992 C 252.183 95.046,251.995 95.099,251.831 95.109 C 251.450 95.131,251.422 95.150,251.246 95.521 C 251.166 95.691,251.040 95.861,250.967 95.899 C 250.720 96.026,250.467 96.314,250.467 96.466 C 250.467 96.552,250.369 96.710,250.241 96.830 C 249.953 97.102,249.800 97.400,249.800 97.689 C 249.800 97.949,249.723 98.032,249.420 98.097 C 249.302 98.122,249.092 98.197,248.953 98.264 C 248.814 98.330,248.607 98.404,248.493 98.429 C 248.238 98.483,247.999 98.737,247.830 99.133 C 247.759 99.298,247.650 99.490,247.588 99.559 C 247.525 99.628,247.455 99.769,247.432 99.873 C 247.409 99.976,247.333 100.134,247.261 100.225 C 247.190 100.315,247.123 100.519,247.113 100.676 L 247.094 100.963 246.676 101.107 C 246.447 101.186,246.184 101.321,246.091 101.408 C 245.961 101.531,245.857 101.564,245.628 101.555 C 245.466 101.549,245.333 101.573,245.333 101.609 C 245.333 101.645,245.302 101.655,245.264 101.632 C 245.225 101.608,245.150 101.625,245.097 101.669 C 245.019 101.734,245.000 101.728,245.000 101.638 C 245.000 101.574,244.902 101.485,244.767 101.429 C 244.638 101.375,244.533 101.305,244.533 101.273 C 244.533 101.163,244.723 101.141,244.806 101.241 C 244.877 101.326,244.902 101.309,244.981 101.121 C 245.042 100.977,245.050 100.894,245.003 100.879 C 244.965 100.866,244.933 100.814,244.933 100.763 C 244.933 100.709,244.893 100.687,244.834 100.709 C 244.779 100.730,244.751 100.774,244.771 100.807 C 244.843 100.923,244.583 100.958,244.500 100.844 C 244.455 100.783,244.386 100.733,244.347 100.733 C 244.230 100.733,244.183 100.601,244.264 100.503 C 244.377 100.368,244.223 100.301,244.095 100.429 C 244.037 100.486,243.955 100.534,243.912 100.535 C 243.869 100.537,243.886 100.577,243.950 100.626 C 244.107 100.745,244.098 100.819,243.933 100.767 C 243.839 100.737,243.800 100.755,243.800 100.829 C 243.800 100.886,243.847 100.933,243.905 100.933 C 243.991 100.933,243.983 100.967,243.865 101.117 C 243.786 101.218,243.656 101.300,243.578 101.300 C 243.496 101.300,243.426 101.349,243.413 101.417 C 243.399 101.488,243.431 101.533,243.495 101.533 C 243.553 101.533,243.600 101.563,243.600 101.600 C 243.600 101.637,243.570 101.667,243.533 101.667 C 243.497 101.667,243.467 101.700,243.467 101.740 C 243.467 101.781,243.512 101.797,243.567 101.776 C 243.622 101.755,243.667 101.767,243.667 101.802 C 243.667 101.838,243.713 101.867,243.770 101.867 C 243.861 101.867,243.859 101.892,243.755 102.068 C 243.675 102.203,243.603 102.255,243.535 102.227 C 243.479 102.203,243.388 102.188,243.333 102.193 C 243.278 102.198,243.136 102.204,243.017 102.207 C 242.898 102.211,242.800 102.239,242.800 102.270 C 242.800 102.301,242.659 102.285,242.487 102.233 C 242.156 102.133,241.912 102.205,242.064 102.357 C 242.162 102.456,242.150 102.533,242.035 102.533 C 241.980 102.533,241.953 102.573,241.973 102.625 C 242.005 102.710,241.715 103.000,241.597 103.000 C 241.569 103.000,241.557 102.808,241.572 102.573 C 241.599 102.141,241.409 101.970,241.312 102.339 C 241.246 102.594,240.474 102.589,240.164 102.331 C 240.103 102.281,239.964 102.266,239.784 102.293 C 239.432 102.344,239.107 102.260,239.078 102.112 C 239.067 102.050,239.089 102.000,239.128 102.000 C 239.168 102.000,239.200 102.030,239.200 102.067 C 239.200 102.199,239.530 102.130,239.713 101.959 L 239.900 101.786 239.921 101.959 C 239.959 102.268,240.133 102.116,240.133 101.775 C 240.133 101.693,240.166 101.594,240.206 101.554 C 240.255 101.505,240.258 101.439,240.215 101.357 C 240.180 101.289,240.165 101.196,240.181 101.150 C 240.227 101.024,240.083 101.050,240.003 101.183 C 239.937 101.294,239.929 101.294,239.843 101.183 C 239.793 101.119,239.703 101.067,239.643 101.067 C 239.583 101.067,239.533 101.039,239.533 101.006 C 239.533 100.973,239.472 100.962,239.396 100.982 C 239.161 101.043,238.980 100.787,239.099 100.558 C 239.178 100.405,239.201 100.393,239.237 100.487 C 239.277 100.591,239.400 100.585,239.400 100.479 C 239.400 100.139,238.458 99.577,238.368 99.863 C 238.348 99.925,238.275 100.037,238.206 100.111 C 238.081 100.246,238.082 100.600,238.208 100.600 C 238.334 100.600,238.258 100.916,238.080 101.128 C 237.901 101.343,237.878 101.351,237.445 101.341 C 237.057 101.333,236.975 101.353,236.841 101.486 C 236.682 101.645,236.539 101.647,236.447 101.490 C 236.369 101.359,236.267 101.380,236.267 101.526 C 236.267 101.595,236.224 101.734,236.172 101.834 C 236.047 102.074,236.096 102.179,236.336 102.185 C 236.586 102.193,236.690 102.256,236.615 102.356 C 236.484 102.530,236.532 102.749,236.694 102.718 C 236.811 102.696,236.842 102.715,236.820 102.796 C 236.770 102.988,237.093 103.226,237.262 103.122 C 237.364 103.058,237.418 103.054,237.452 103.107 C 237.478 103.148,237.552 103.173,237.617 103.163 C 237.681 103.153,237.733 103.160,237.733 103.179 C 237.733 103.253,237.501 103.600,237.452 103.600 C 237.424 103.600,237.400 103.642,237.400 103.693 C 237.400 103.825,237.184 103.892,237.102 103.785 C 237.064 103.736,236.908 103.655,236.754 103.605 C 236.482 103.517,236.200 103.273,236.200 103.126 C 236.200 103.085,236.157 103.069,236.105 103.089 C 235.976 103.139,235.854 102.978,235.910 102.831 C 235.948 102.731,235.930 102.719,235.795 102.755 C 235.706 102.779,235.611 102.799,235.583 102.799 C 235.481 102.801,235.538 103.000,235.640 103.000 C 235.712 103.000,235.734 103.036,235.706 103.109 C 235.621 103.330,235.736 103.675,235.880 103.629 C 235.995 103.593,236.002 103.604,235.939 103.723 C 235.859 103.872,235.946 104.200,236.065 104.200 C 236.103 104.200,236.133 104.231,236.133 104.270 C 236.133 104.312,236.048 104.324,235.917 104.300 C 235.649 104.251,235.435 104.563,235.636 104.710 C 235.717 104.769,235.722 104.799,235.658 104.839 C 235.573 104.891,230.855 104.968,225.233 105.010 L 222.166 105.032 221.733 104.671 C 221.243 104.262,220.400 103.696,220.180 103.628 C 219.834 103.521,219.681 103.339,219.537 102.864 C 219.362 102.287,219.062 101.934,218.513 101.656 C 218.034 101.415,217.848 101.223,217.584 100.700 C 217.473 100.480,217.239 100.060,217.064 99.767 C 216.888 99.473,216.693 99.053,216.631 98.833 C 216.464 98.250,216.303 97.970,215.991 97.721 C 215.839 97.600,215.480 97.282,215.195 97.017 C 214.590 96.454,214.479 96.430,213.760 96.700 C 212.992 96.989,212.866 96.935,212.394 96.117 C 211.233 94.109,210.327 93.558,209.173 94.161 C 208.503 94.512,208.543 94.515,207.831 94.065 C 207.194 93.663,207.076 93.627,205.967 93.495 C 204.493 93.319,204.139 93.456,203.673 94.382 C 203.493 94.742,203.305 94.796,202.908 94.604 C 202.240 94.281,201.102 93.002,200.530 91.933 C 200.334 91.567,200.065 91.162,199.931 91.031 L 199.688 90.793 199.508 91.029 C 199.409 91.158,199.032 91.504,198.670 91.798 C 198.307 92.091,197.943 92.429,197.860 92.549 C 197.777 92.669,197.701 92.778,197.690 92.792 C 197.643 92.855,197.325 92.578,197.123 92.295 L 196.901 91.986 196.626 92.290 C 196.453 92.481,196.270 92.798,196.131 93.147 C 195.565 94.572,195.310 94.899,193.882 96.034 C 193.064 96.684,192.908 96.903,192.829 97.512 C 192.656 98.849,191.831 98.634,191.411 97.142 C 191.229 96.496,191.218 96.493,190.668 96.944 C 190.316 97.232,190.155 97.196,189.541 96.694 C 188.720 96.024,188.442 96.049,187.115 96.919 C 186.403 97.384,186.129 97.434,184.999 97.302 C 184.511 97.245,184.106 97.207,184.098 97.216 C 184.091 97.226,184.035 97.340,183.974 97.471 C 183.906 97.616,183.741 97.786,183.552 97.905 C 183.008 98.246,182.880 98.386,182.771 98.760 C 182.700 99.005,182.576 99.212,182.368 99.428 C 182.152 99.654,182.038 99.847,181.960 100.121 C 181.829 100.576,181.730 100.699,181.322 100.906 C 181.150 100.993,180.852 101.244,180.655 101.469 C 179.913 102.316,179.633 102.331,178.833 101.572 C 178.246 101.013,178.109 100.949,177.333 100.866 C 176.579 100.785,176.364 100.694,176.262 100.413 C 176.064 99.866,175.899 99.763,175.437 99.902 C 174.599 100.154,173.662 100.086,173.480 99.759 C 173.440 99.689,173.237 99.619,172.900 99.560 C 172.403 99.474,172.006 99.310,171.200 98.861 C 170.736 98.602,170.542 98.626,169.747 99.041 C 168.691 99.592,167.993 99.525,167.159 98.791 C 166.138 97.893,165.814 97.899,163.940 98.850 C 162.489 99.587,161.460 99.858,161.150 99.585 C 160.653 99.146,159.507 98.775,158.821 98.829 C 158.305 98.871,158.254 98.862,157.884 98.675 C 157.276 98.368,157.032 98.344,156.800 98.567 L 156.609 98.750 156.012 98.545 C 155.684 98.432,155.038 98.248,154.576 98.135 C 153.086 97.773,152.453 97.494,151.622 96.831 C 150.688 96.087,150.080 95.906,149.767 96.279 C 149.666 96.399,149.370 96.656,149.110 96.851 C 148.849 97.046,148.445 97.415,148.211 97.671 C 147.547 98.399,147.314 98.474,146.868 98.101 C 146.471 97.769,145.819 98.250,145.100 99.405 C 144.854 99.801,144.815 99.834,144.595 99.836 C 144.428 99.837,144.280 99.901,144.104 100.046 C 143.857 100.249,143.847 100.252,143.612 100.154 C 143.329 100.035,143.014 100.072,142.754 100.255 C 142.418 100.491,142.250 100.487,141.771 100.233 C 141.127 99.891,140.990 99.918,140.454 100.487 L 140.142 100.819 139.754 100.782 C 139.334 100.741,138.429 100.374,137.784 99.982 C 137.573 99.854,137.150 99.671,136.842 99.575 C 136.511 99.472,136.111 99.284,135.858 99.113 C 135.355 98.772,135.195 98.705,134.533 98.562 C 133.639 98.368,133.274 98.045,132.989 97.197 C 132.743 96.462,132.395 96.202,131.780 96.294 C 131.439 96.346,131.173 96.261,130.921 96.021 C 130.792 95.897,130.693 95.859,130.568 95.883 C 130.451 95.905,130.369 95.878,130.312 95.798 C 130.130 95.537,128.908 94.267,128.840 94.267 C 128.799 94.267,128.590 94.374,128.373 94.504 L 127.979 94.742 127.640 94.415 C 126.921 93.724,126.757 93.674,126.267 94.000 C 126.102 94.110,125.932 94.200,125.890 94.200 C 125.737 94.200,125.420 93.751,125.375 93.469 C 125.304 93.029,125.201 92.887,124.356 92.067 C 123.774 91.502,123.506 91.187,123.340 90.873 C 123.037 90.299,122.733 89.978,122.328 89.804 L 121.990 89.659 121.378 89.874 C 120.154 90.304,119.682 90.208,118.700 89.329 C 117.940 88.648,117.297 88.185,117.111 88.185 C 117.032 88.185,116.817 88.206,116.633 88.231 C 116.408 88.263,116.149 88.242,115.833 88.168 C 114.704 87.903,114.647 87.898,114.327 88.057 C 113.934 88.252,112.605 89.459,112.472 89.741 C 112.382 89.934,112.233 90.033,111.429 90.433 C 110.913 90.690,110.360 91.013,110.200 91.150 C 109.539 91.718,108.454 91.922,107.586 91.641 C 106.999 91.451,106.910 91.458,105.884 91.772 C 104.681 92.141,104.528 92.160,103.410 92.079 L 102.520 92.016 102.110 91.585 C 101.430 90.870,101.123 90.774,100.359 91.038 C 99.480 91.341,98.953 91.260,97.867 90.650 C 97.628 90.517,97.133 90.306,96.767 90.181 C 96.400 90.056,95.950 89.887,95.767 89.804 C 94.432 89.201,93.681 89.217,93.339 89.856 C 93.242 90.037,92.188 90.808,91.490 91.208 C 91.166 91.395,90.720 91.718,90.500 91.927 C 90.280 92.137,89.950 92.410,89.767 92.534 C 89.583 92.659,89.373 92.837,89.300 92.930 C 88.994 93.321,88.778 93.467,88.502 93.468 C 88.133 93.469,88.127 93.475,87.732 94.289 C 87.289 95.202,87.025 95.434,86.087 95.734 C 85.323 95.979,84.400 96.200,84.142 96.200 C 83.855 96.200,83.075 95.409,82.805 94.844 C 82.598 94.410,82.588 94.400,82.336 94.400 C 82.096 94.400,82.058 94.371,81.779 93.980 C 81.434 93.497,81.075 93.155,80.574 92.835 C 80.329 92.679,80.062 92.399,79.699 91.922 C 78.516 90.366,78.452 90.335,77.363 90.774 C 77.024 90.911,76.629 91.021,76.448 91.029 C 76.273 91.037,76.106 91.071,76.077 91.105 C 75.702 91.543,75.117 92.291,74.984 92.503 C 74.695 92.966,74.389 93.180,73.750 93.366 C 73.429 93.459,73.017 93.610,72.833 93.700 C 72.650 93.791,72.306 93.913,72.070 93.971 C 71.514 94.108,71.362 94.193,71.012 94.558 C 70.728 94.855,70.721 94.858,70.308 94.846 C 69.744 94.831,69.580 94.948,69.297 95.569 C 68.899 96.442,68.131 96.923,66.634 97.236 C 66.331 97.299,65.455 98.231,65.205 98.757 C 64.894 99.407,64.927 99.397,63.810 99.202 C 63.340 99.120,63.247 99.135,62.767 99.366 C 62.583 99.455,62.231 99.617,61.984 99.726 C 61.736 99.836,61.434 100.003,61.311 100.096 C 61.068 100.282,60.728 100.321,60.609 100.178 C 60.568 100.129,60.292 99.974,59.995 99.835 L 59.455 99.581 59.062 99.691 C 58.402 99.874,57.929 99.643,57.175 98.767 C 56.487 97.968,55.476 97.222,55.206 97.316 C 54.778 97.463,54.006 98.594,53.925 99.194 C 53.830 99.884,54.118 99.860,50.227 99.506 C 46.940 99.208,46.834 99.194,46.670 99.038 C 46.229 98.620,45.568 98.515,45.232 98.810 L 44.992 99.021 42.513 98.770 C 38.213 98.335,36.742 98.157,36.622 98.059 C 35.983 97.535,35.333 96.415,35.333 95.835 C 35.333 95.560,35.026 95.267,34.737 95.267 C 34.599 95.267,34.391 95.233,34.275 95.193 C 33.984 95.091,33.723 95.209,33.504 95.539 C 33.337 95.792,33.183 95.867,33.102 95.737 C 33.080 95.702,32.856 95.607,32.604 95.525 L 32.145 95.377 31.594 95.789 C 30.803 96.379,30.386 96.338,29.567 95.589 L 29.205 95.258 28.902 95.392 C 28.735 95.466,28.457 95.645,28.283 95.791 C 28.069 95.970,27.837 96.089,27.567 96.159 C 27.089 96.282,26.920 96.451,26.979 96.747 L 27.021 96.953 26.560 96.907 C 26.307 96.882,25.081 96.718,23.835 96.542 L 21.570 96.222 20.968 95.582 C 20.326 94.898,20.165 94.800,19.687 94.800 C 18.954 94.800,18.926 94.774,18.253 93.467 C 17.802 92.591,17.717 92.486,17.167 92.117 C 16.384 91.592,16.120 91.280,16.167 90.933 L 16.208 90.633 15.766 90.379 L 15.324 90.124 15.012 90.286 C 14.290 90.659,13.490 90.575,12.704 90.043 C 11.842 89.461,11.566 89.378,11.233 89.603 C 10.848 89.864,10.588 89.941,10.235 89.898 C 9.855 89.851,9.209 90.209,8.916 90.628 C 8.651 91.008,8.521 91.021,7.945 90.723 C 7.599 90.545,7.522 90.527,7.431 90.602 C 7.277 90.730,7.133 91.033,7.133 91.231 C 7.133 91.458,6.865 92.108,6.574 92.588 C 6.313 93.018,5.969 93.224,5.386 93.300 C 5.057 93.343,4.895 93.481,4.654 93.924 C 4.516 94.177,4.233 94.355,3.671 94.543 C 3.339 94.653,3.163 94.766,2.891 95.039 C 2.462 95.472,2.291 95.505,0.383 95.529 L 0.000 95.533 0.000 114.433 L 0.000 133.333 200.000 133.333 L 400.000 133.333 400.000 114.434 L 400.000 95.534 396.256 95.517 L 392.513 95.500 392.389 95.135 C 392.095 94.270,392.043 93.785,392.171 93.104 L 392.289 92.479 392.094 92.309 C 391.987 92.215,391.741 92.062,391.547 91.968 C 391.352 91.875,390.988 91.606,390.738 91.371 C 390.487 91.136,390.101 90.851,389.878 90.739 C 389.274 90.434,388.908 89.860,388.831 89.097 C 388.775 88.535,388.693 88.364,388.349 88.088 C 388.151 87.928,388.044 87.764,387.919 87.427 C 387.757 86.987,387.745 86.974,387.327 86.772 C 387.004 86.617,386.843 86.487,386.667 86.238 C 386.170 85.540,385.961 85.354,385.817 85.484 C 385.542 85.733,385.393 85.588,385.126 84.812 C 385.057 84.611,385.000 84.329,385.000 84.187 C 385.000 83.876,384.654 83.100,384.471 83.002 C 383.843 82.666,383.053 83.626,381.651 86.430 C 380.832 88.066,380.729 88.239,378.818 91.187 C 378.415 91.808,378.016 92.609,377.634 93.567 C 376.838 95.560,376.451 96.205,375.693 96.801 L 375.244 97.153 373.415 97.380 C 371.376 97.633,371.394 97.635,371.296 97.176 C 371.214 96.792,370.974 96.682,370.721 96.912 C 370.570 97.048,370.511 97.009,369.478 96.109 C 368.804 95.521,368.783 95.493,368.431 94.758 C 367.941 93.736,367.752 93.664,366.765 94.127 C 365.809 94.575,365.620 94.739,365.325 95.377 C 364.932 96.227,364.677 96.249,364.110 95.482 C 363.813 95.082,363.353 94.642,362.800 94.233 C 362.238 93.817,361.911 93.508,361.623 93.117 C 361.251 92.614,360.188 90.886,359.870 90.267 C 359.241 89.045,359.064 88.867,358.481 88.867 C 358.109 88.867,358.053 88.821,357.761 88.275 C 357.656 88.079,357.275 87.601,356.915 87.214 C 356.549 86.821,356.154 86.317,356.018 86.072 C 355.259 84.695,354.832 84.616,353.667 85.640 L 353.167 86.080 352.700 86.047 C 352.443 86.029,351.972 85.936,351.652 85.841 C 351.222 85.713,350.876 85.662,350.316 85.643 C 349.085 85.600,348.649 85.237,348.063 83.766 C 347.947 83.473,347.584 82.640,347.257 81.914 C 346.232 79.641,346.010 78.902,345.963 77.600 C 345.921 76.411,345.807 76.164,344.855 75.194 C 343.945 74.267,343.867 74.148,343.867 73.697 C 343.867 73.253,343.780 73.231,343.240 73.535 C 342.788 73.790,341.463 74.082,341.188 73.986 C 340.926 73.894,340.742 73.618,340.203 72.500 C 339.809 71.682,339.658 71.439,339.374 71.167 C 339.020 70.827,338.800 70.320,338.800 69.846 C 338.800 69.747,338.738 69.614,338.663 69.550 C 338.588 69.486,338.442 69.351,338.338 69.251 L 338.149 69.070 337.891 69.257 C 337.749 69.360,337.590 69.497,337.537 69.561 C 337.406 69.720,336.573 70.133,336.383 70.133 C 335.928 70.133,335.193 69.147,335.101 68.413 C 334.819 66.157,334.539 65.100,333.838 63.629 C 333.447 62.809,333.184 62.352,331.901 60.267 C 331.416 59.478,330.802 58.458,330.536 58.000 C 329.937 56.967,330.005 57.044,329.546 56.877 C 329.067 56.702,328.873 56.502,328.569 55.867 C 328.011 54.703,327.897 54.630,327.033 54.875 M238.788 101.416 C 238.776 101.498,238.716 101.575,238.654 101.587 C 238.557 101.605,238.552 101.586,238.621 101.438 C 238.719 101.228,238.817 101.215,238.788 101.416 M238.333 101.467 C 238.333 101.503,238.258 101.533,238.167 101.533 C 238.075 101.533,238.000 101.503,238.000 101.467 C 238.000 101.430,238.075 101.400,238.167 101.400 C 238.258 101.400,238.333 101.430,238.333 101.467 M237.309 101.617 C 237.287 101.699,237.268 101.804,237.268 101.850 C 237.267 101.896,237.222 101.933,237.167 101.933 C 237.046 101.933,237.032 101.662,237.147 101.547 C 237.274 101.420,237.352 101.454,237.309 101.617 M237.373 102.508 C 237.461 102.530,237.533 102.575,237.533 102.607 C 237.533 102.688,237.287 102.682,237.129 102.598 C 236.974 102.515,236.955 102.368,237.106 102.426 C 237.165 102.449,237.285 102.485,237.373 102.508 M239.250 102.743 C 239.292 102.785,239.410 102.826,239.513 102.833 C 239.833 102.855,239.867 102.865,239.867 102.933 C 239.867 102.970,239.822 103.000,239.767 103.000 C 239.712 103.000,239.667 103.030,239.667 103.067 C 239.667 103.103,239.622 103.133,239.567 103.133 C 239.512 103.133,239.467 103.104,239.467 103.068 C 239.467 103.032,239.398 102.985,239.314 102.964 C 239.135 102.919,238.942 102.667,239.086 102.667 C 239.134 102.667,239.208 102.701,239.250 102.743 M239.600 103.292 C 239.600 103.306,239.555 103.354,239.500 103.400 C 239.418 103.468,239.400 103.463,239.400 103.375 C 239.400 103.315,239.445 103.267,239.500 103.267 C 239.555 103.267,239.600 103.278,239.600 103.292 M236.532 103.650 C 236.532 103.677,236.503 103.744,236.469 103.798 C 236.392 103.920,236.302 103.844,236.356 103.703 C 236.396 103.599,236.534 103.558,236.532 103.650 M237.598 103.936 C 237.472 104.015,237.400 104.016,237.400 103.938 C 237.400 103.875,237.608 103.805,237.665 103.849 C 237.682 103.863,237.652 103.902,237.598 103.936 M236.733 104.133 C 236.733 104.170,236.688 104.200,236.633 104.200 C 236.578 104.200,236.533 104.170,236.533 104.133 C 236.533 104.097,236.578 104.067,236.633 104.067 C 236.688 104.067,236.733 104.097,236.733 104.133 M236.903 104.672 C 236.928 104.712,237.019 104.726,237.105 104.705 C 237.228 104.674,237.254 104.688,237.224 104.766 C 237.201 104.827,237.101 104.867,236.971 104.867 C 236.723 104.867,236.661 104.825,236.712 104.693 C 236.755 104.582,236.842 104.572,236.903 104.672 " stroke="none" fill="url(#svg-gradient)" fill-rule="evenodd"></path></g>
</svg>